<svg width="1852" height="2587" viewBox="0 0 1852 2587" fill="none" xmlns="http://www.w3.org/2000/svg">
<path d="M1763.04 0H88.6746C39.7009 0 0 39.6051 0 88.4606V2498.07C0 2546.92 39.7009 2586.53 88.6746 2586.53H1763.04C1812.02 2586.53 1851.72 2546.92 1851.72 2498.07V88.4606C1851.72 39.6051 1812.02 0 1763.04 0Z" fill="white"/>
<mask id="mask0" mask-type="alpha" maskUnits="userSpaceOnUse" x="117" y="146" width="1618" height="2294">
<path d="M1656.73 146.962H194.984C152.229 146.962 117.569 182.066 117.569 225.37V2361.16C117.569 2404.46 152.229 2439.56 194.984 2439.56H1656.73C1699.49 2439.56 1734.15 2404.46 1734.15 2361.16V225.37C1734.15 182.066 1699.49 146.962 1656.73 146.962Z" fill="#F71111"/>
</mask>
<g mask="url(#mask0)">
<rect x="71" y="135.188" width="1710" height="1282.5" fill="#ECECF4"/>
<rect x="926" y="135.188" width="213.75" height="213.75" fill="#111747"/>
<rect x="712.25" y="135.188" width="213.75" height="213.75" fill="#111747"/>
<path d="M284.75 669.562C284.75 610.537 332.6 562.688 391.625 562.688H498.5V776.438H391.625C332.6 776.438 284.75 728.588 284.75 669.562V669.562Z" fill="#111747"/>
<rect x="712.25" y="562.688" width="213.75" height="213.75" fill="#111747"/>
<rect x="712.25" y="776.438" width="213.75" height="213.75" fill="#FFC641"/>
<rect x="1139.75" y="562.688" width="213.75" height="213.75" fill="#06818E"/>
<rect x="926" y="562.688" width="213.75" height="213.75" fill="#06818E"/>
<rect x="712.25" y="1203.94" width="213.75" height="213.75" fill="#FFC641"/>
<rect x="498.5" y="562.688" width="213.75" height="213.75" fill="#111747"/>
<rect x="712.25" y="990.188" width="213.75" height="213.75" fill="white"/>
<rect x="712.25" y="348.938" width="213.75" height="213.75" fill="#16A3B2"/>
<path d="M926 562.688H1032.88C1091.9 562.688 1139.75 610.537 1139.75 669.562V669.562C1139.75 728.588 1091.9 776.438 1032.88 776.438H926V562.688Z" fill="#111747"/>
<path d="M926 1203.94H1032.88C1091.9 1203.94 1139.75 1251.79 1139.75 1310.81V1310.81C1139.75 1369.84 1091.9 1417.69 1032.88 1417.69H926V1203.94Z" fill="#FE5E33"/>
<path d="M926 990.188H1032.88C1091.9 990.188 1139.75 1038.04 1139.75 1097.06V1097.06C1139.75 1156.09 1091.9 1203.94 1032.88 1203.94H926V990.188Z" fill="#16A3B2"/>
<path d="M712.25 242.062C712.25 183.037 760.1 135.188 819.125 135.188V135.188C878.15 135.188 926 183.037 926 242.062V348.938H712.25V242.062Z" fill="#16A3B2"/>
<path d="M1353.5 455.812C1353.5 396.787 1401.35 348.938 1460.38 348.938V348.938C1519.4 348.938 1567.25 396.787 1567.25 455.812V562.688H1353.5V455.812Z" fill="#FE5E33"/>
<path d="M926 455.812C926 396.787 973.85 348.938 1032.88 348.938V348.938C1091.9 348.938 1139.75 396.787 1139.75 455.812V562.688H926V455.812Z" fill="#FE5E33"/>
<path d="M498.5 455.812C498.5 396.787 546.35 348.938 605.375 348.938V348.938C664.4 348.938 712.25 396.787 712.25 455.812V562.688H499.775C499.071 562.688 498.5 562.117 498.5 561.413V455.812Z" fill="#FF87A2"/>
<path d="M498.5 1310.81C498.5 1251.79 546.35 1203.94 605.375 1203.94V1203.94C664.4 1203.94 712.25 1251.79 712.25 1310.81V1417.69H498.5V1310.81Z" fill="#FF87A2"/>
<rect x="819.125" y="28.3125" width="213.75" height="213.75" rx="106.875" fill="#16A3B2"/>
<path fill-rule="evenodd" clip-rule="evenodd" d="M712.25 562.688H926C926 621.713 878.15 669.563 819.125 669.563C760.1 669.563 712.25 621.713 712.25 562.688Z" fill="#06818E"/>
<path fill-rule="evenodd" clip-rule="evenodd" d="M1139.75 348.938H1353.5C1353.5 407.963 1305.65 455.813 1246.63 455.813C1187.6 455.813 1139.75 407.963 1139.75 348.938Z" fill="#06818E"/>
<path fill-rule="evenodd" clip-rule="evenodd" d="M1353.5 455.812H1567.25C1567.25 514.838 1519.4 562.688 1460.38 562.688C1401.35 562.688 1353.5 514.838 1353.5 455.812Z" fill="#FFC641"/>
<path d="M926 883.312C926 824.287 973.85 776.438 1032.88 776.438H1137.63C1138.8 776.438 1139.75 777.385 1139.75 778.554V778.554C1139.75 895.436 1042.88 990.188 926 990.188V990.188V883.312Z" fill="#16A3B2"/>
<path d="M284.75 787.389C284.75 781.34 289.653 776.438 295.701 776.438H498.5V883.312C498.5 942.338 450.65 990.188 391.625 990.188V990.188C332.6 990.188 284.75 942.338 284.75 883.312V787.389Z" fill="#16A3B2"/>
<path fill-rule="evenodd" clip-rule="evenodd" d="M926 990.188H712.25C712.25 931.162 760.1 883.312 819.125 883.312C878.15 883.312 926 931.162 926 990.188Z" fill="#06818E"/>
<path fill-rule="evenodd" clip-rule="evenodd" d="M1781 562.688H1567.25C1567.25 503.662 1615.1 455.812 1674.13 455.812C1733.15 455.812 1781 503.662 1781 562.688Z" fill="#16A3B2"/>
<path fill-rule="evenodd" clip-rule="evenodd" d="M712.25 776.438H498.5C498.5 717.412 546.35 669.562 605.375 669.562C664.4 669.562 712.25 717.412 712.25 776.438Z" fill="#FE5E33"/>
<rect x="1353.5" y="990.188" width="213.75" height="213.75" fill="white"/>
<rect x="1353.5" y="1203.94" width="213.75" height="213.75" fill="#FE5E33"/>
<rect x="498.5" y="776.438" width="213.75" height="213.75" fill="#FFC641"/>
<path d="M498.5 990.188H712.25V1097.06C712.25 1156.09 664.4 1203.94 605.375 1203.94V1203.94C546.35 1203.94 498.5 1156.09 498.5 1097.06V990.188Z" fill="#FFC641"/>
<path fill-rule="evenodd" clip-rule="evenodd" d="M926 28.3125C926 87.3379 878.15 135.188 819.125 135.188C819.125 76.1621 866.975 28.3125 926 28.3125ZM712.25 242.063C712.25 183.037 760.1 135.188 819.125 135.188C819.125 194.213 771.275 242.063 712.25 242.063ZM819.125 135.188C760.1 135.188 712.25 87.3379 712.25 28.3125C771.275 28.3125 819.125 76.1621 819.125 135.188ZM819.125 135.188C878.15 135.188 926 183.037 926 242.063C866.975 242.063 819.125 194.213 819.125 135.188Z" fill="#06818E"/>
<rect x="1353.5" y="562.688" width="213.75" height="213.75" fill="#FE5E33"/>
<rect x="71" y="1203.94" width="213.75" height="213.75" fill="#111747"/>
<rect x="1353.5" y="135.188" width="213.75" height="213.75" fill="#FE5E33"/>
<rect x="71" y="348.938" width="213.75" height="213.75" fill="#16A3B2"/>
<rect x="1567.25" y="562.688" width="213.75" height="213.75" fill="#16A3B2"/>
<rect x="1139.75" y="135.188" width="213.75" height="213.75" fill="#06818E"/>
<rect x="71" y="776.438" width="213.75" height="213.75" fill="#FE5E33"/>
<rect x="1353.5" y="776.438" width="213.75" height="213.75" fill="#FE5E33"/>
<path d="M1353.5 776.438H1460.38C1519.4 776.438 1567.25 824.287 1567.25 883.312V988.421C1567.25 989.397 1566.46 990.188 1565.48 990.188V990.188C1448.41 990.188 1353.5 893.513 1353.5 776.438V776.438Z" fill="#111747"/>
<path fill-rule="evenodd" clip-rule="evenodd" d="M1353.5 776.438C1294.47 776.438 1246.62 728.588 1246.62 669.563C1246.62 610.537 1294.47 562.688 1353.5 562.688V776.438Z" fill="#16A3B2"/>
<path fill-rule="evenodd" clip-rule="evenodd" d="M1353.5 776.438V562.688C1412.53 562.688 1460.38 610.537 1460.38 669.563C1460.38 728.588 1412.53 776.438 1353.5 776.438Z" fill="#16A3B2"/>
<path d="M1567.25 990.188H1674.12C1733.15 990.188 1781 1038.04 1781 1097.06V1097.06C1781 1156.09 1733.15 1203.94 1674.12 1203.94H1567.25V990.188Z" fill="#16A3B2"/>
<path fill-rule="evenodd" clip-rule="evenodd" d="M1567.25 1203.94C1508.22 1203.94 1460.38 1156.09 1460.38 1097.06C1460.38 1038.04 1508.22 990.188 1567.25 990.188V1203.94Z" fill="#16A3B2"/>
<rect x="71" y="562.688" width="213.75" height="213.75" rx="106.875" fill="#FF87A2"/>
<rect x="1139.75" y="990.188" width="213.75" height="213.75" rx="106.875" fill="#FFC641"/>
<rect x="1567.25" y="776.438" width="213.75" height="213.75" fill="#FF87A2"/>
<path d="M1139.75 883.312C1139.75 824.287 1187.6 776.438 1246.62 776.438H1353.5V990.188H1246.62C1187.6 990.188 1139.75 942.338 1139.75 883.312V883.312Z" fill="#FF87A2"/>
<path fill-rule="evenodd" clip-rule="evenodd" d="M284.75 562.688H498.5C498.5 621.713 450.65 669.563 391.625 669.563C332.6 669.563 284.75 621.713 284.75 562.688Z" fill="#FF87A2"/>
<path fill-rule="evenodd" clip-rule="evenodd" d="M926 562.688H1139.75C1139.75 621.713 1091.9 669.563 1032.88 669.563C973.85 669.563 926 621.713 926 562.688Z" fill="#FE5E33"/>
<rect x="284.75" y="348.938" width="213.75" height="213.75" fill="#FF87A2"/>
<path fill-rule="evenodd" clip-rule="evenodd" d="M498.5 348.938H284.75C284.75 289.912 332.6 242.062 391.625 242.062C450.65 242.062 498.5 289.912 498.5 348.938Z" fill="#FF87A2"/>
<path fill-rule="evenodd" clip-rule="evenodd" d="M498.5 135.188C498.5 194.213 450.65 242.063 391.625 242.063C391.625 183.037 439.475 135.188 498.5 135.188Z" fill="#06818E"/>
<path fill-rule="evenodd" clip-rule="evenodd" d="M284.75 348.938C284.75 289.912 332.6 242.062 391.625 242.062C391.625 301.088 343.775 348.938 284.75 348.938Z" fill="#111747"/>
<path fill-rule="evenodd" clip-rule="evenodd" d="M445.063 548.342C413.117 529.862 391.625 495.323 391.625 455.765C391.625 416.206 413.117 381.667 445.063 363.188C477.008 381.667 498.5 416.206 498.5 455.765C498.5 495.323 477.008 529.862 445.063 548.342V548.342Z" fill="white"/>
<path fill-rule="evenodd" clip-rule="evenodd" d="M926 348.938C926 407.963 878.15 455.813 819.125 455.813C819.125 396.787 866.975 348.938 926 348.938Z" fill="#111747"/>
<path fill-rule="evenodd" clip-rule="evenodd" d="M1139.75 562.688C1198.78 562.688 1246.63 610.537 1246.63 669.563C1187.6 669.563 1139.75 621.713 1139.75 562.688Z" fill="#16A3B2"/>
<path fill-rule="evenodd" clip-rule="evenodd" d="M1567.25 776.438C1567.25 835.463 1519.4 883.313 1460.38 883.313C1460.38 824.287 1508.22 776.438 1567.25 776.438Z" fill="#FFC641"/>
<path fill-rule="evenodd" clip-rule="evenodd" d="M284.75 348.938C284.75 407.963 236.9 455.813 177.875 455.813C177.875 396.787 225.725 348.938 284.75 348.938Z" fill="#FFC641"/>
<path fill-rule="evenodd" clip-rule="evenodd" d="M284.75 990.188V776.438C343.775 776.438 391.625 824.287 391.625 883.313C391.625 942.338 343.775 990.188 284.75 990.188Z" fill="#FE5E33"/>
<path fill-rule="evenodd" clip-rule="evenodd" d="M71 990.188C71 931.162 118.85 883.312 177.875 883.312C177.875 942.338 130.025 990.188 71 990.188Z" fill="#16A3B2"/>
<rect x="71" y="135.188" width="213.75" height="213.75" rx="106.875" fill="#06818E"/>
<path fill-rule="evenodd" clip-rule="evenodd" d="M1339.15 402.375C1320.67 434.32 1286.14 455.813 1246.58 455.813C1207.02 455.813 1172.48 434.32 1154 402.375C1172.48 370.43 1207.02 348.938 1246.58 348.938C1286.14 348.938 1320.67 370.43 1339.15 402.375V402.375Z" fill="#16A3B2"/>
<path fill-rule="evenodd" clip-rule="evenodd" d="M71 562.688C71 503.662 118.85 455.812 177.875 455.812C177.875 514.838 130.025 562.688 71 562.688Z" fill="#06818E"/>
<path fill-rule="evenodd" clip-rule="evenodd" d="M712.25 776.438C712.25 717.412 760.1 669.562 819.125 669.562C819.125 728.588 771.275 776.438 712.25 776.438Z" fill="white"/>
<path fill-rule="evenodd" clip-rule="evenodd" d="M231.313 1189.59C199.367 1171.11 177.875 1136.57 177.875 1097.01C177.875 1057.46 199.367 1022.92 231.313 1004.44C263.258 1022.92 284.75 1057.46 284.75 1097.01C284.75 1136.57 263.258 1171.11 231.313 1189.59V1189.59ZM124.438 1189.59C92.4925 1171.11 71 1136.57 71 1097.01C71 1057.46 92.4925 1022.92 124.438 1004.44C156.383 1022.92 177.875 1057.46 177.875 1097.01C177.875 1136.57 156.383 1171.11 124.438 1189.59V1189.59Z" fill="#16A3B2"/>
<path fill-rule="evenodd" clip-rule="evenodd" d="M1086.31 1189.59C1054.37 1171.11 1032.88 1136.57 1032.88 1097.01C1032.88 1057.46 1054.37 1022.92 1086.31 1004.44C1118.26 1022.92 1139.75 1057.46 1139.75 1097.01C1139.75 1136.57 1118.26 1171.11 1086.31 1189.59V1189.59Z" fill="#111747"/>
<rect x="1567.25" y="562.688" width="213.75" height="213.75" rx="106.875" fill="#111747"/>
<rect x="498.5" y="990.188" width="213.75" height="213.75" rx="106.875" fill="#16A3B2"/>
<rect x="391.625" y="883.312" width="213.75" height="213.75" rx="106.875" fill="white"/>
<rect x="498.5" y="776.438" width="213.75" height="213.75" rx="106.875" fill="#FE5E33"/>
<path fill-rule="evenodd" clip-rule="evenodd" d="M1674.13 616.125C1703.64 616.125 1727.56 640.05 1727.56 669.563C1727.56 699.075 1703.64 723 1674.13 723C1644.61 723 1620.69 699.075 1620.69 669.563C1620.69 640.05 1644.61 616.125 1674.13 616.125Z" fill="#FFC641"/>
<path fill-rule="evenodd" clip-rule="evenodd" d="M605.375 616.125C634.888 616.125 658.813 640.05 658.813 669.563C658.813 699.075 634.888 723 605.375 723C575.862 723 551.938 699.075 551.938 669.563C551.938 640.05 575.862 616.125 605.375 616.125Z" fill="#FFC641"/>
<path fill-rule="evenodd" clip-rule="evenodd" d="M177.875 616.125C207.388 616.125 231.313 640.05 231.313 669.563C231.313 699.075 207.388 723 177.875 723C148.362 723 124.438 699.075 124.438 669.563C124.438 640.05 148.362 616.125 177.875 616.125Z" fill="#111747"/>
<path fill-rule="evenodd" clip-rule="evenodd" d="M819.125 1043.62C848.638 1043.62 872.563 1067.55 872.563 1097.06C872.563 1126.58 848.638 1150.5 819.125 1150.5C789.612 1150.5 765.688 1126.58 765.688 1097.06C765.688 1067.55 789.612 1043.62 819.125 1043.62Z" fill="#FE5E33"/>
<path fill-rule="evenodd" clip-rule="evenodd" d="M1032.88 829.875C1062.39 829.875 1086.31 853.8 1086.31 883.313C1086.31 912.825 1062.39 936.75 1032.88 936.75C1003.36 936.75 979.438 912.825 979.438 883.313C979.438 853.8 1003.36 829.875 1032.88 829.875Z" fill="#FE5E33"/>
<path fill-rule="evenodd" clip-rule="evenodd" d="M391.625 1043.62C421.138 1043.62 445.063 1067.55 445.063 1097.06C445.063 1126.58 421.138 1150.5 391.625 1150.5C362.112 1150.5 338.188 1126.58 338.188 1097.06C338.188 1067.55 362.112 1043.62 391.625 1043.62Z" fill="#16A3B2"/>
<path fill-rule="evenodd" clip-rule="evenodd" d="M1246.63 829.875C1276.14 829.875 1300.06 853.8 1300.06 883.313C1300.06 912.825 1276.14 936.75 1246.63 936.75C1217.11 936.75 1193.19 912.825 1193.19 883.313C1193.19 853.8 1217.11 829.875 1246.63 829.875Z" fill="#16A3B2"/>
<path fill-rule="evenodd" clip-rule="evenodd" d="M177.875 1043.62C207.388 1043.62 231.313 1067.55 231.313 1097.06C231.313 1126.58 207.388 1150.5 177.875 1150.5C148.362 1150.5 124.438 1126.58 124.438 1097.06C124.438 1067.55 148.362 1043.62 177.875 1043.62Z" fill="#FE5E33"/>
<path fill-rule="evenodd" clip-rule="evenodd" d="M1032.88 402.375C1062.39 402.375 1086.31 426.3 1086.31 455.813C1086.31 485.325 1062.39 509.25 1032.88 509.25C1003.36 509.25 979.438 485.325 979.438 455.813C979.438 426.3 1003.36 402.375 1032.88 402.375Z" fill="#FFC641"/>
<path fill-rule="evenodd" clip-rule="evenodd" d="M391.625 829.875C421.138 829.875 445.063 853.8 445.063 883.313C445.063 912.825 421.138 936.75 391.625 936.75C362.112 936.75 338.188 912.825 338.188 883.313C338.188 853.8 362.112 829.875 391.625 829.875Z" fill="#111747"/>
<path fill-rule="evenodd" clip-rule="evenodd" d="M819.125 509.25C848.638 509.25 872.563 533.175 872.563 562.688C872.563 592.2 848.638 616.125 819.125 616.125C789.612 616.125 765.688 592.2 765.688 562.688C765.688 533.175 789.612 509.25 819.125 509.25Z" fill="#FE5E33"/>
<path fill-rule="evenodd" clip-rule="evenodd" d="M1674.13 1043.62C1703.64 1043.62 1727.56 1067.55 1727.56 1097.06C1727.56 1126.58 1703.64 1150.5 1674.13 1150.5C1644.61 1150.5 1620.69 1126.58 1620.69 1097.06C1620.69 1067.55 1644.61 1043.62 1674.13 1043.62Z" fill="#FE5E33"/>
<path fill-rule="evenodd" clip-rule="evenodd" d="M1567.25 242.062C1567.25 301.088 1519.4 348.938 1460.38 348.938C1460.38 289.912 1508.22 242.062 1567.25 242.062ZM1353.5 455.813C1353.5 396.787 1401.35 348.938 1460.38 348.938C1460.38 407.963 1412.53 455.813 1353.5 455.813ZM1460.38 348.938C1401.35 348.938 1353.5 301.088 1353.5 242.063C1412.53 242.063 1460.38 289.912 1460.38 348.938ZM1460.38 348.938C1519.4 348.938 1567.25 396.787 1567.25 455.813C1508.22 455.813 1460.38 407.963 1460.38 348.938Z" fill="#111747"/>
<path fill-rule="evenodd" clip-rule="evenodd" d="M1246.62 1310.81C1246.62 1251.79 1294.47 1203.94 1353.5 1203.94C1353.5 1262.96 1305.65 1310.81 1246.62 1310.81Z" fill="#111747"/>
<path d="M498.5 135.188H712.25V242.062C712.25 301.088 664.4 348.938 605.375 348.938V348.938C546.35 348.938 498.5 301.088 498.5 242.062V135.188Z" fill="#06818E"/>
<path fill-rule="evenodd" clip-rule="evenodd" d="M605.375 242.063C605.375 183.037 653.225 135.188 712.25 135.188C712.25 194.213 664.4 242.063 605.375 242.063Z" fill="#FE5E33"/>
<rect x="284.75" y="1203.94" width="213.75" height="213.75" fill="#111747"/>
<path fill-rule="evenodd" clip-rule="evenodd" d="M498.5 1203.94H284.75C284.75 1144.91 332.6 1097.06 391.625 1097.06C450.65 1097.06 498.5 1144.91 498.5 1203.94Z" fill="#FE5E33"/>
<path d="M1567.25 242.062C1567.25 183.037 1615.1 135.188 1674.12 135.188H1781V348.938H1674.12C1615.1 348.938 1567.25 301.088 1567.25 242.062V242.062Z" fill="#111747"/>
<path fill-rule="evenodd" clip-rule="evenodd" d="M1674.13 188.625C1703.64 188.625 1727.56 212.55 1727.56 242.063C1727.56 271.575 1703.64 295.5 1674.13 295.5C1644.61 295.5 1620.69 271.575 1620.69 242.063C1620.69 212.55 1644.61 188.625 1674.13 188.625Z" fill="white"/>
<path fill-rule="evenodd" clip-rule="evenodd" d="M177.875 1310.81C177.875 1251.79 225.725 1203.94 284.75 1203.94C284.75 1262.96 236.9 1310.81 177.875 1310.81Z" fill="#16A3B2"/>
<path fill-rule="evenodd" clip-rule="evenodd" d="M1781 1203.94C1781 1262.96 1733.15 1310.81 1674.12 1310.81C1674.12 1251.79 1721.97 1203.94 1781 1203.94ZM1567.25 1417.69C1567.25 1358.66 1615.1 1310.81 1674.13 1310.81C1674.13 1369.84 1626.28 1417.69 1567.25 1417.69ZM1674.13 1310.81C1615.1 1310.81 1567.25 1262.96 1567.25 1203.94C1626.28 1203.94 1674.13 1251.79 1674.13 1310.81ZM1674.12 1310.81C1733.15 1310.81 1781 1358.66 1781 1417.69C1721.97 1417.69 1674.12 1369.84 1674.12 1310.81Z" fill="#16A3B2"/>
<path fill-rule="evenodd" clip-rule="evenodd" d="M1766.65 402.375C1748.17 434.32 1713.64 455.813 1674.08 455.813C1634.52 455.813 1599.98 434.32 1581.5 402.375C1599.98 370.43 1634.52 348.938 1674.08 348.938C1713.64 348.938 1748.17 370.43 1766.65 402.375V402.375Z" fill="#FFC641"/>
<path fill-rule="evenodd" clip-rule="evenodd" d="M1032.88 883.312C1032.88 942.338 985.025 990.188 926 990.188C926 931.162 973.85 883.312 1032.88 883.312Z" fill="#06818E"/>
<path fill-rule="evenodd" clip-rule="evenodd" d="M284.75 28.3125C284.75 87.3379 236.9 135.188 177.875 135.188C177.875 76.1621 225.725 28.3125 284.75 28.3125ZM71 242.063C71 183.037 118.85 135.188 177.875 135.188C177.875 194.213 130.025 242.063 71 242.063ZM177.875 135.188C118.85 135.188 71 87.3379 71 28.3125C130.025 28.3125 177.875 76.1621 177.875 135.188ZM177.875 135.188C236.9 135.188 284.75 183.037 284.75 242.063C225.725 242.063 177.875 194.213 177.875 135.188Z" fill="#111747"/>
<path fill-rule="evenodd" clip-rule="evenodd" d="M712.25 883.312C712.25 942.338 664.4 990.188 605.375 990.188C605.375 931.162 653.225 883.312 712.25 883.312ZM498.5 1097.06C498.5 1038.04 546.35 990.188 605.375 990.188C605.375 1049.21 557.525 1097.06 498.5 1097.06ZM605.375 990.188C546.35 990.188 498.5 942.338 498.5 883.312C557.525 883.312 605.375 931.162 605.375 990.188ZM605.375 990.188C664.4 990.188 712.25 1038.04 712.25 1097.06C653.225 1097.06 605.375 1049.21 605.375 990.188Z" fill="#16A3B2"/>
<rect x="71" y="1342.88" width="1710" height="1282.5" fill="#ECECF4"/>
<rect x="926" y="1342.88" width="213.75" height="213.75" fill="#111747"/>
<rect x="712.25" y="1342.88" width="213.75" height="213.75" fill="#111747"/>
<path d="M284.75 1877.25C284.75 1818.22 332.6 1770.38 391.625 1770.38H498.5V1984.13H391.625C332.6 1984.13 284.75 1936.28 284.75 1877.25V1877.25Z" fill="#111747"/>
<rect x="712.25" y="1770.38" width="213.75" height="213.75" fill="#111747"/>
<rect x="712.25" y="1984.13" width="213.75" height="213.75" fill="#FFC641"/>
<rect x="1139.75" y="1770.38" width="213.75" height="213.75" fill="#06818E"/>
<rect x="926" y="1770.38" width="213.75" height="213.75" fill="#06818E"/>
<rect x="712.25" y="2411.62" width="213.75" height="213.75" fill="#FFC641"/>
<rect x="498.5" y="1770.38" width="213.75" height="213.75" fill="#111747"/>
<rect x="712.25" y="2197.88" width="213.75" height="213.75" fill="white"/>
<rect x="712.25" y="1556.63" width="213.75" height="213.75" fill="#16A3B2"/>
<path d="M926 1770.38H1032.88C1091.9 1770.38 1139.75 1818.22 1139.75 1877.25V1877.25C1139.75 1936.28 1091.9 1984.13 1032.88 1984.13H926V1770.38Z" fill="#111747"/>
<path d="M926 2411.62H1032.88C1091.9 2411.62 1139.75 2459.47 1139.75 2518.5V2518.5C1139.75 2577.53 1091.9 2625.38 1032.88 2625.38H926V2411.62Z" fill="#FE5E33"/>
<path d="M926 2197.88H1032.88C1091.9 2197.88 1139.75 2245.72 1139.75 2304.75V2304.75C1139.75 2363.78 1091.9 2411.62 1032.88 2411.62H926V2197.88Z" fill="#16A3B2"/>
<path d="M712.25 1449.75C712.25 1390.72 760.1 1342.88 819.125 1342.88V1342.88C878.15 1342.88 926 1390.72 926 1449.75V1556.63H712.25V1449.75Z" fill="#16A3B2"/>
<path d="M1353.5 1663.5C1353.5 1604.47 1401.35 1556.63 1460.38 1556.63V1556.63C1519.4 1556.63 1567.25 1604.47 1567.25 1663.5V1770.38H1353.5V1663.5Z" fill="#FE5E33"/>
<path d="M926 1663.5C926 1604.47 973.85 1556.63 1032.88 1556.63V1556.63C1091.9 1556.63 1139.75 1604.47 1139.75 1663.5V1770.38H926V1663.5Z" fill="#FE5E33"/>
<path d="M498.5 1663.5C498.5 1604.47 546.35 1556.63 605.375 1556.63V1556.63C664.4 1556.63 712.25 1604.47 712.25 1663.5V1770.38H499.775C499.071 1770.38 498.5 1769.8 498.5 1769.1V1663.5Z" fill="#FF87A2"/>
<path d="M498.5 2518.5C498.5 2459.47 546.35 2411.62 605.375 2411.62V2411.62C664.4 2411.62 712.25 2459.47 712.25 2518.5V2625.38H498.5V2518.5Z" fill="#FF87A2"/>
<rect x="819.125" y="1236" width="213.75" height="213.75" rx="106.875" fill="#16A3B2"/>
<path fill-rule="evenodd" clip-rule="evenodd" d="M712.25 1770.38H926C926 1829.4 878.15 1877.25 819.125 1877.25C760.1 1877.25 712.25 1829.4 712.25 1770.38Z" fill="#06818E"/>
<path fill-rule="evenodd" clip-rule="evenodd" d="M1139.75 1556.63H1353.5C1353.5 1615.65 1305.65 1663.5 1246.63 1663.5C1187.6 1663.5 1139.75 1615.65 1139.75 1556.63Z" fill="#06818E"/>
<path fill-rule="evenodd" clip-rule="evenodd" d="M1353.5 1663.5H1567.25C1567.25 1722.53 1519.4 1770.38 1460.38 1770.38C1401.35 1770.38 1353.5 1722.53 1353.5 1663.5Z" fill="#FFC641"/>
<path d="M926 2091C926 2031.97 973.85 1984.13 1032.88 1984.13H1137.63C1138.8 1984.13 1139.75 1985.07 1139.75 1986.24V1986.24C1139.75 2103.12 1042.88 2197.88 926 2197.88V2197.88V2091Z" fill="#16A3B2"/>
<path d="M284.75 1995.08C284.75 1989.03 289.653 1984.13 295.701 1984.13H498.5V2091C498.5 2150.03 450.65 2197.88 391.625 2197.88V2197.88C332.6 2197.88 284.75 2150.03 284.75 2091V1995.08Z" fill="#16A3B2"/>
<path fill-rule="evenodd" clip-rule="evenodd" d="M926 2197.88H712.25C712.25 2138.85 760.1 2091 819.125 2091C878.15 2091 926 2138.85 926 2197.88Z" fill="#06818E"/>
<path fill-rule="evenodd" clip-rule="evenodd" d="M1781 1770.38H1567.25C1567.25 1711.35 1615.1 1663.5 1674.13 1663.5C1733.15 1663.5 1781 1711.35 1781 1770.38Z" fill="#16A3B2"/>
<path fill-rule="evenodd" clip-rule="evenodd" d="M712.25 1984.13H498.5C498.5 1925.1 546.35 1877.25 605.375 1877.25C664.4 1877.25 712.25 1925.1 712.25 1984.13Z" fill="#FE5E33"/>
<rect x="1353.5" y="2197.88" width="213.75" height="213.75" fill="white"/>
<rect x="1353.5" y="2411.62" width="213.75" height="213.75" fill="#FE5E33"/>
<rect x="498.5" y="1984.13" width="213.75" height="213.75" fill="#FFC641"/>
<path d="M498.5 2197.88H712.25V2304.75C712.25 2363.78 664.4 2411.62 605.375 2411.62V2411.62C546.35 2411.62 498.5 2363.78 498.5 2304.75V2197.88Z" fill="#FFC641"/>
<path fill-rule="evenodd" clip-rule="evenodd" d="M926 1236C926 1295.03 878.15 1342.88 819.125 1342.88C819.125 1283.85 866.975 1236 926 1236ZM712.25 1449.75C712.25 1390.72 760.1 1342.88 819.125 1342.88C819.125 1401.9 771.275 1449.75 712.25 1449.75ZM819.125 1342.88C760.1 1342.88 712.25 1295.03 712.25 1236C771.275 1236 819.125 1283.85 819.125 1342.88ZM819.125 1342.88C878.15 1342.88 926 1390.72 926 1449.75C866.975 1449.75 819.125 1401.9 819.125 1342.88Z" fill="#06818E"/>
<rect x="1353.5" y="1770.38" width="213.75" height="213.75" fill="#FE5E33"/>
<rect x="71" y="2411.62" width="213.75" height="213.75" fill="#111747"/>
<rect x="1353.5" y="1342.88" width="213.75" height="213.75" fill="#FE5E33"/>
<rect x="71" y="1556.63" width="213.75" height="213.75" fill="#16A3B2"/>
<rect x="1567.25" y="1770.38" width="213.75" height="213.75" fill="#16A3B2"/>
<rect x="1139.75" y="1342.88" width="213.75" height="213.75" fill="#06818E"/>
<rect x="71" y="1984.13" width="213.75" height="213.75" fill="#FE5E33"/>
<rect x="1353.5" y="1984.13" width="213.75" height="213.75" fill="#FE5E33"/>
<path d="M1353.5 1984.13H1460.38C1519.4 1984.13 1567.25 2031.97 1567.25 2091V2196.11C1567.25 2197.08 1566.46 2197.88 1565.48 2197.88V2197.88C1448.41 2197.88 1353.5 2101.2 1353.5 1984.13V1984.13Z" fill="#111747"/>
<path fill-rule="evenodd" clip-rule="evenodd" d="M1353.5 1984.13C1294.47 1984.13 1246.62 1936.28 1246.62 1877.25C1246.62 1818.22 1294.47 1770.38 1353.5 1770.38V1984.13Z" fill="#16A3B2"/>
<path fill-rule="evenodd" clip-rule="evenodd" d="M1353.5 1984.13V1770.38C1412.53 1770.38 1460.38 1818.22 1460.38 1877.25C1460.38 1936.28 1412.53 1984.13 1353.5 1984.13Z" fill="#16A3B2"/>
<path d="M1567.25 2197.88H1674.12C1733.15 2197.88 1781 2245.72 1781 2304.75V2304.75C1781 2363.78 1733.15 2411.62 1674.12 2411.62H1567.25V2197.88Z" fill="#16A3B2"/>
<path fill-rule="evenodd" clip-rule="evenodd" d="M1567.25 2411.63C1508.22 2411.63 1460.38 2363.78 1460.38 2304.75C1460.38 2245.72 1508.22 2197.88 1567.25 2197.88V2411.63Z" fill="#16A3B2"/>
<rect x="71" y="1770.38" width="213.75" height="213.75" rx="106.875" fill="#FF87A2"/>
<rect x="1139.75" y="2197.88" width="213.75" height="213.75" rx="106.875" fill="#FFC641"/>
<rect x="1567.25" y="1984.13" width="213.75" height="213.75" fill="#FF87A2"/>
<path d="M1139.75 2091C1139.75 2031.97 1187.6 1984.13 1246.62 1984.13H1353.5V2197.88H1246.62C1187.6 2197.88 1139.75 2150.03 1139.75 2091V2091Z" fill="#FF87A2"/>
<path fill-rule="evenodd" clip-rule="evenodd" d="M284.75 1770.38H498.5C498.5 1829.4 450.65 1877.25 391.625 1877.25C332.6 1877.25 284.75 1829.4 284.75 1770.38Z" fill="#FF87A2"/>
<path fill-rule="evenodd" clip-rule="evenodd" d="M926 1770.38H1139.75C1139.75 1829.4 1091.9 1877.25 1032.88 1877.25C973.85 1877.25 926 1829.4 926 1770.38Z" fill="#FE5E33"/>
<rect x="284.75" y="1556.63" width="213.75" height="213.75" fill="#FF87A2"/>
<path fill-rule="evenodd" clip-rule="evenodd" d="M498.5 1556.63H284.75C284.75 1497.6 332.6 1449.75 391.625 1449.75C450.65 1449.75 498.5 1497.6 498.5 1556.63Z" fill="#FF87A2"/>
<path fill-rule="evenodd" clip-rule="evenodd" d="M498.5 1342.88C498.5 1401.9 450.65 1449.75 391.625 1449.75C391.625 1390.72 439.475 1342.88 498.5 1342.88Z" fill="#06818E"/>
<path fill-rule="evenodd" clip-rule="evenodd" d="M284.75 1556.63C284.75 1497.6 332.6 1449.75 391.625 1449.75C391.625 1508.78 343.775 1556.63 284.75 1556.63Z" fill="#111747"/>
<path fill-rule="evenodd" clip-rule="evenodd" d="M445.063 1756.03C413.117 1737.55 391.625 1703.01 391.625 1663.45C391.625 1623.89 413.117 1589.35 445.063 1570.88C477.008 1589.35 498.5 1623.89 498.5 1663.45C498.5 1703.01 477.008 1737.55 445.063 1756.03V1756.03Z" fill="white"/>
<path fill-rule="evenodd" clip-rule="evenodd" d="M926 1556.63C926 1615.65 878.15 1663.5 819.125 1663.5C819.125 1604.47 866.975 1556.63 926 1556.63Z" fill="#111747"/>
<path fill-rule="evenodd" clip-rule="evenodd" d="M1139.75 1770.38C1198.78 1770.38 1246.63 1818.22 1246.63 1877.25C1187.6 1877.25 1139.75 1829.4 1139.75 1770.38Z" fill="#16A3B2"/>
<path fill-rule="evenodd" clip-rule="evenodd" d="M1567.25 1984.13C1567.25 2043.15 1519.4 2091 1460.38 2091C1460.38 2031.97 1508.22 1984.13 1567.25 1984.13Z" fill="#FFC641"/>
<path fill-rule="evenodd" clip-rule="evenodd" d="M284.75 1556.63C284.75 1615.65 236.9 1663.5 177.875 1663.5C177.875 1604.47 225.725 1556.63 284.75 1556.63Z" fill="#FFC641"/>
<path fill-rule="evenodd" clip-rule="evenodd" d="M284.75 2197.88V1984.13C343.775 1984.13 391.625 2031.97 391.625 2091C391.625 2150.03 343.775 2197.88 284.75 2197.88Z" fill="#FE5E33"/>
<path fill-rule="evenodd" clip-rule="evenodd" d="M71 2197.88C71 2138.85 118.85 2091 177.875 2091C177.875 2150.03 130.025 2197.88 71 2197.88Z" fill="#16A3B2"/>
<rect x="71" y="1342.88" width="213.75" height="213.75" rx="106.875" fill="#06818E"/>
<path fill-rule="evenodd" clip-rule="evenodd" d="M1339.15 1610.06C1320.67 1642.01 1286.14 1663.5 1246.58 1663.5C1207.02 1663.5 1172.48 1642.01 1154 1610.06C1172.48 1578.12 1207.02 1556.63 1246.58 1556.63C1286.14 1556.63 1320.67 1578.12 1339.15 1610.06V1610.06Z" fill="#16A3B2"/>
<path fill-rule="evenodd" clip-rule="evenodd" d="M71 1770.38C71 1711.35 118.85 1663.5 177.875 1663.5C177.875 1722.53 130.025 1770.38 71 1770.38Z" fill="#06818E"/>
<path fill-rule="evenodd" clip-rule="evenodd" d="M712.25 1984.13C712.25 1925.1 760.1 1877.25 819.125 1877.25C819.125 1936.28 771.275 1984.13 712.25 1984.13Z" fill="white"/>
<path fill-rule="evenodd" clip-rule="evenodd" d="M231.313 2397.28C199.367 2378.8 177.875 2344.26 177.875 2304.7C177.875 2265.14 199.367 2230.6 231.313 2212.12C263.258 2230.6 284.75 2265.14 284.75 2304.7C284.75 2344.26 263.258 2378.8 231.313 2397.28V2397.28ZM124.438 2397.28C92.4925 2378.8 71 2344.26 71 2304.7C71 2265.14 92.4925 2230.6 124.438 2212.13C156.383 2230.6 177.875 2265.14 177.875 2304.7C177.875 2344.26 156.383 2378.8 124.438 2397.28V2397.28Z" fill="#16A3B2"/>
<path fill-rule="evenodd" clip-rule="evenodd" d="M1086.31 2397.28C1054.37 2378.8 1032.88 2344.26 1032.88 2304.7C1032.88 2265.14 1054.37 2230.6 1086.31 2212.12C1118.26 2230.6 1139.75 2265.14 1139.75 2304.7C1139.75 2344.26 1118.26 2378.8 1086.31 2397.28V2397.28Z" fill="#111747"/>
<rect x="1567.25" y="1770.38" width="213.75" height="213.75" rx="106.875" fill="#111747"/>
<rect x="498.5" y="2197.88" width="213.75" height="213.75" rx="106.875" fill="#16A3B2"/>
<rect x="391.625" y="2091" width="213.75" height="213.75" rx="106.875" fill="white"/>
<rect x="498.5" y="1984.13" width="213.75" height="213.75" rx="106.875" fill="#FE5E33"/>
<path fill-rule="evenodd" clip-rule="evenodd" d="M1674.13 1823.81C1703.64 1823.81 1727.56 1847.74 1727.56 1877.25C1727.56 1906.76 1703.64 1930.69 1674.13 1930.69C1644.61 1930.69 1620.69 1906.76 1620.69 1877.25C1620.69 1847.74 1644.61 1823.81 1674.13 1823.81Z" fill="#FFC641"/>
<path fill-rule="evenodd" clip-rule="evenodd" d="M605.375 1823.81C634.888 1823.81 658.813 1847.74 658.813 1877.25C658.813 1906.76 634.888 1930.69 605.375 1930.69C575.862 1930.69 551.938 1906.76 551.938 1877.25C551.938 1847.74 575.862 1823.81 605.375 1823.81Z" fill="#FFC641"/>
<path fill-rule="evenodd" clip-rule="evenodd" d="M177.875 1823.81C207.388 1823.81 231.313 1847.74 231.313 1877.25C231.313 1906.76 207.388 1930.69 177.875 1930.69C148.362 1930.69 124.438 1906.76 124.438 1877.25C124.438 1847.74 148.362 1823.81 177.875 1823.81Z" fill="#111747"/>
<path fill-rule="evenodd" clip-rule="evenodd" d="M819.125 2251.31C848.638 2251.31 872.563 2275.24 872.563 2304.75C872.563 2334.26 848.638 2358.19 819.125 2358.19C789.612 2358.19 765.688 2334.26 765.688 2304.75C765.688 2275.24 789.612 2251.31 819.125 2251.31Z" fill="#FE5E33"/>
<path fill-rule="evenodd" clip-rule="evenodd" d="M1032.88 2037.56C1062.39 2037.56 1086.31 2061.49 1086.31 2091C1086.31 2120.51 1062.39 2144.44 1032.88 2144.44C1003.36 2144.44 979.438 2120.51 979.438 2091C979.438 2061.49 1003.36 2037.56 1032.88 2037.56Z" fill="#FE5E33"/>
<path fill-rule="evenodd" clip-rule="evenodd" d="M391.625 2251.31C421.138 2251.31 445.063 2275.24 445.063 2304.75C445.063 2334.26 421.138 2358.19 391.625 2358.19C362.112 2358.19 338.188 2334.26 338.188 2304.75C338.188 2275.24 362.112 2251.31 391.625 2251.31Z" fill="#16A3B2"/>
<path fill-rule="evenodd" clip-rule="evenodd" d="M1246.63 2037.56C1276.14 2037.56 1300.06 2061.49 1300.06 2091C1300.06 2120.51 1276.14 2144.44 1246.63 2144.44C1217.11 2144.44 1193.19 2120.51 1193.19 2091C1193.19 2061.49 1217.11 2037.56 1246.63 2037.56Z" fill="#16A3B2"/>
<path fill-rule="evenodd" clip-rule="evenodd" d="M177.875 2251.31C207.388 2251.31 231.313 2275.24 231.313 2304.75C231.313 2334.26 207.388 2358.19 177.875 2358.19C148.362 2358.19 124.438 2334.26 124.438 2304.75C124.438 2275.24 148.362 2251.31 177.875 2251.31Z" fill="#FE5E33"/>
<path fill-rule="evenodd" clip-rule="evenodd" d="M1032.88 1610.06C1062.39 1610.06 1086.31 1633.99 1086.31 1663.5C1086.31 1693.01 1062.39 1716.94 1032.88 1716.94C1003.36 1716.94 979.438 1693.01 979.438 1663.5C979.438 1633.99 1003.36 1610.06 1032.88 1610.06Z" fill="#FFC641"/>
<path fill-rule="evenodd" clip-rule="evenodd" d="M391.625 2037.56C421.138 2037.56 445.063 2061.49 445.063 2091C445.063 2120.51 421.138 2144.44 391.625 2144.44C362.112 2144.44 338.188 2120.51 338.188 2091C338.188 2061.49 362.112 2037.56 391.625 2037.56Z" fill="#111747"/>
<path fill-rule="evenodd" clip-rule="evenodd" d="M819.125 1716.94C848.638 1716.94 872.563 1740.86 872.563 1770.38C872.563 1799.89 848.638 1823.81 819.125 1823.81C789.612 1823.81 765.688 1799.89 765.688 1770.38C765.688 1740.86 789.612 1716.94 819.125 1716.94Z" fill="#FE5E33"/>
<path fill-rule="evenodd" clip-rule="evenodd" d="M1674.13 2251.31C1703.64 2251.31 1727.56 2275.24 1727.56 2304.75C1727.56 2334.26 1703.64 2358.19 1674.13 2358.19C1644.61 2358.19 1620.69 2334.26 1620.69 2304.75C1620.69 2275.24 1644.61 2251.31 1674.13 2251.31Z" fill="#FE5E33"/>
<path fill-rule="evenodd" clip-rule="evenodd" d="M1567.25 1449.75C1567.25 1508.78 1519.4 1556.63 1460.38 1556.63C1460.38 1497.6 1508.22 1449.75 1567.25 1449.75ZM1353.5 1663.5C1353.5 1604.47 1401.35 1556.63 1460.38 1556.63C1460.38 1615.65 1412.53 1663.5 1353.5 1663.5ZM1460.38 1556.63C1401.35 1556.63 1353.5 1508.78 1353.5 1449.75C1412.53 1449.75 1460.38 1497.6 1460.38 1556.63ZM1460.38 1556.63C1519.4 1556.63 1567.25 1604.47 1567.25 1663.5C1508.22 1663.5 1460.38 1615.65 1460.38 1556.63Z" fill="#111747"/>
<path fill-rule="evenodd" clip-rule="evenodd" d="M1246.62 2518.5C1246.62 2459.47 1294.47 2411.62 1353.5 2411.62C1353.5 2470.65 1305.65 2518.5 1246.62 2518.5Z" fill="#111747"/>
<path d="M498.5 1342.88H712.25V1449.75C712.25 1508.78 664.4 1556.63 605.375 1556.63V1556.63C546.35 1556.63 498.5 1508.78 498.5 1449.75V1342.88Z" fill="#06818E"/>
<path fill-rule="evenodd" clip-rule="evenodd" d="M605.375 1449.75C605.375 1390.72 653.225 1342.88 712.25 1342.88C712.25 1401.9 664.4 1449.75 605.375 1449.75Z" fill="#FE5E33"/>
<rect x="284.75" y="2411.62" width="213.75" height="213.75" fill="#111747"/>
<path fill-rule="evenodd" clip-rule="evenodd" d="M498.5 2411.63H284.75C284.75 2352.6 332.6 2304.75 391.625 2304.75C450.65 2304.75 498.5 2352.6 498.5 2411.63Z" fill="#FE5E33"/>
<path d="M1567.25 1449.75C1567.25 1390.72 1615.1 1342.88 1674.12 1342.88H1781V1556.63H1674.12C1615.1 1556.63 1567.25 1508.78 1567.25 1449.75V1449.75Z" fill="#111747"/>
<path fill-rule="evenodd" clip-rule="evenodd" d="M1674.13 1396.31C1703.64 1396.31 1727.56 1420.24 1727.56 1449.75C1727.56 1479.26 1703.64 1503.19 1674.13 1503.19C1644.61 1503.19 1620.69 1479.26 1620.69 1449.75C1620.69 1420.24 1644.61 1396.31 1674.13 1396.31Z" fill="white"/>
<path fill-rule="evenodd" clip-rule="evenodd" d="M177.875 2518.5C177.875 2459.47 225.725 2411.62 284.75 2411.62C284.75 2470.65 236.9 2518.5 177.875 2518.5Z" fill="#16A3B2"/>
<path fill-rule="evenodd" clip-rule="evenodd" d="M1781 2411.62C1781 2470.65 1733.15 2518.5 1674.12 2518.5C1674.12 2459.47 1721.97 2411.62 1781 2411.62ZM1567.25 2625.38C1567.25 2566.35 1615.1 2518.5 1674.13 2518.5C1674.13 2577.53 1626.28 2625.38 1567.25 2625.38ZM1674.13 2518.5C1615.1 2518.5 1567.25 2470.65 1567.25 2411.62C1626.28 2411.62 1674.13 2459.47 1674.13 2518.5ZM1674.12 2518.5C1733.15 2518.5 1781 2566.35 1781 2625.38C1721.97 2625.38 1674.12 2577.53 1674.12 2518.5Z" fill="#16A3B2"/>
<path fill-rule="evenodd" clip-rule="evenodd" d="M1766.65 1610.06C1748.17 1642.01 1713.64 1663.5 1674.08 1663.5C1634.52 1663.5 1599.98 1642.01 1581.5 1610.06C1599.98 1578.12 1634.52 1556.63 1674.08 1556.63C1713.64 1556.63 1748.17 1578.12 1766.65 1610.06V1610.06Z" fill="#FFC641"/>
<path fill-rule="evenodd" clip-rule="evenodd" d="M1032.88 2091C1032.88 2150.03 985.025 2197.88 926 2197.88C926 2138.85 973.85 2091 1032.88 2091Z" fill="#06818E"/>
<path fill-rule="evenodd" clip-rule="evenodd" d="M284.75 1236C284.75 1295.03 236.9 1342.88 177.875 1342.88C177.875 1283.85 225.725 1236 284.75 1236ZM71 1449.75C71 1390.72 118.85 1342.88 177.875 1342.88C177.875 1401.9 130.025 1449.75 71 1449.75ZM177.875 1342.88C118.85 1342.88 71 1295.03 71 1236C130.025 1236 177.875 1283.85 177.875 1342.88ZM177.875 1342.88C236.9 1342.88 284.75 1390.72 284.75 1449.75C225.725 1449.75 177.875 1401.9 177.875 1342.88Z" fill="#111747"/>
<path fill-rule="evenodd" clip-rule="evenodd" d="M712.25 2091C712.25 2150.03 664.4 2197.88 605.375 2197.88C605.375 2138.85 653.225 2091 712.25 2091ZM498.5 2304.75C498.5 2245.72 546.35 2197.88 605.375 2197.88C605.375 2256.9 557.525 2304.75 498.5 2304.75ZM605.375 2197.88C546.35 2197.88 498.5 2150.03 498.5 2091C557.525 2091 605.375 2138.85 605.375 2197.88ZM605.375 2197.88C664.4 2197.88 712.25 2245.72 712.25 2304.75C653.225 2304.75 605.375 2256.9 605.375 2197.88Z" fill="#16A3B2"/>
</g>
</svg>
