<svg width="1852" height="2587" viewBox="0 0 1852 2587" fill="none" xmlns="http://www.w3.org/2000/svg">
<path d="M1763.04 0.473511H88.6746C39.7009 0.473511 0 40.0786 0 88.9342V2498.54C0 2547.39 39.7009 2587 88.6746 2587H1763.04C1812.02 2587 1851.72 2547.39 1851.72 2498.54V88.9342C1851.72 40.0786 1812.02 0.473511 1763.04 0.473511Z" fill="white"/>
<mask id="mask0" mask-type="alpha" maskUnits="userSpaceOnUse" x="117" y="147" width="1618" height="2294">
<path d="M1656.73 147.435H194.984C152.229 147.435 117.569 182.54 117.569 225.844V2361.63C117.569 2404.93 152.229 2440.04 194.984 2440.04H1656.73C1699.49 2440.04 1734.15 2404.93 1734.15 2361.63V225.844C1734.15 182.54 1699.49 147.435 1656.73 147.435Z" fill="#F71111"/>
</mask>
<g mask="url(#mask0)">
<path d="M1734 1146C1734 1178.03 1708.26 1204 1676.5 1204C1644.74 1204 1619 1178.03 1619 1146" stroke="#44AB96" stroke-width="13" stroke-linecap="round" stroke-linejoin="round"/>
<path d="M1734 302C1694.23 302 1662 269.541 1662 229.5C1662 189.459 1694.23 157 1734 157" stroke="#E53855" stroke-width="13" stroke-linecap="round" stroke-linejoin="round"/>
<path d="M696 215.906C696 249.095 722.863 276 756 276C789.137 276 816 249.095 816 215.906V148" stroke="#44AB96" stroke-width="13" stroke-linecap="round" stroke-linejoin="round"/>
<path d="M271.235 1559C196.547 1559 136 1498.79 136 1424.5C136 1350.21 196.547 1290 271.235 1290H395" stroke="#FFB017" stroke-width="13" stroke-linecap="round" stroke-linejoin="round"/>
<path d="M262.98 1467C238.138 1467 218 1447.53 218 1423.5C218 1399.47 238.138 1380 262.98 1380H311" stroke="#44AB96" stroke-width="13" stroke-linecap="round" stroke-linejoin="round"/>
<path d="M400 148L203.627 148C165.173 148 134 178.445 134 216" stroke="#44AB96" stroke-width="13" stroke-linecap="round" stroke-linejoin="round"/>
<path d="M1252 150.001L1503.74 150C1553.04 150 1593 189.847 1593 239" stroke="#4484AB" stroke-width="13" stroke-linecap="round" stroke-linejoin="round"/>
<path d="M1734 609V440.681C1734 407.72 1707.13 381 1674 381C1640.87 381 1614 407.72 1614 440.681V466.734" stroke="#DA774A" stroke-width="13" stroke-linecap="round" stroke-linejoin="round"/>
<path d="M807 1119.04C810.59 1119.04 813.5 1116.13 813.5 1112.54C813.5 1108.95 810.59 1106.04 807 1106.04V1119.04ZM701.622 1281.96C705.212 1281.96 708.122 1279.05 708.122 1275.46C708.122 1271.87 705.212 1268.96 701.622 1268.96V1281.96ZM500.84 1565.5C504.43 1565.5 507.34 1562.59 507.34 1559C507.34 1555.41 504.43 1552.5 500.84 1552.5V1565.5ZM708.655 1360.05C708.655 1356.46 705.745 1353.55 702.155 1353.55C698.565 1353.55 695.655 1356.46 695.655 1360.05H708.655ZM530.262 735C530.262 731.41 527.352 728.5 523.762 728.5C520.172 728.5 517.262 731.41 517.262 735H530.262ZM800.5 1026.38C800.5 1029.97 803.41 1032.88 807 1032.88C810.59 1032.88 813.5 1029.97 813.5 1026.38H800.5ZM807 1106.04H627.563V1119.04H807V1106.04ZM627.563 1106.04C578.778 1106.04 539.169 1145.39 539.169 1194H552.169C552.169 1152.63 585.892 1119.04 627.563 1119.04V1106.04ZM539.169 1194C539.169 1242.61 578.778 1281.96 627.563 1281.96V1268.96C585.892 1268.96 552.169 1235.36 552.169 1194H539.169ZM627.563 1281.96H701.622V1268.96H627.563V1281.96ZM500.84 1552.5H490.143V1565.5H500.84V1552.5ZM490.143 1552.5C462.181 1552.5 439.5 1529.8 439.5 1501.8H426.5C426.5 1536.97 454.988 1565.5 490.143 1565.5V1552.5ZM439.5 1501.8C439.5 1473.78 462.182 1451.08 490.143 1451.08V1438.08C454.987 1438.08 426.5 1466.62 426.5 1501.8H439.5ZM490.143 1451.08H617.723V1438.08H490.143V1451.08ZM617.723 1451.08C667.95 1451.08 708.655 1410.32 708.655 1360.05H695.655C695.655 1403.15 660.756 1438.08 617.723 1438.08V1451.08ZM517.262 735V799.285H530.262V735H517.262ZM517.262 799.285C517.262 881.172 583.57 947.566 665.38 947.566V934.566C590.763 934.566 530.262 874.007 530.262 799.285H517.262ZM665.38 947.566H721.787V934.566H665.38V947.566ZM721.787 947.566C765.252 947.566 800.5 982.844 800.5 1026.38H813.5C813.5 975.678 772.445 934.566 721.787 934.566V947.566Z" fill="#DA774A"/>
<circle cx="722" cy="540" r="40" stroke="#44AB96" stroke-width="13" stroke-linecap="round" stroke-linejoin="round"/>
<ellipse cx="832" cy="1342.5" rx="58" ry="57.5" stroke="#E53855" stroke-width="13" stroke-linecap="round" stroke-linejoin="round"/>
<circle cx="318" cy="404" r="63" stroke="#44AB96" stroke-width="13" stroke-linecap="round" stroke-linejoin="round"/>
<path d="M318.5 541C396.095 541 459 478.992 459 402.5C459 326.008 396.095 264 318.5 264C240.905 264 178 326.008 178 402.5" stroke="#FFB017" stroke-width="13" stroke-linecap="round" stroke-linejoin="round"/>
<path d="M1445.21 1371.46C1423.86 1451.27 1470.04 1533.01 1548.35 1554.04C1626.65 1575.05 1707.44 1527.39 1728.79 1447.57C1750.14 1367.76 1703.96 1286.02 1625.65 1265" stroke="#44AB96" stroke-width="13" stroke-linecap="round" stroke-linejoin="round"/>
<path d="M615.83 1366.5C619.42 1366.5 622.33 1363.59 622.33 1360C622.33 1356.41 619.42 1353.5 615.83 1353.5V1366.5ZM490.371 1106.55C492.128 1103.42 491.016 1099.46 487.886 1097.7C484.755 1095.95 480.793 1097.06 479.036 1100.19L490.371 1106.55ZM721 1028.5C724.59 1028.5 727.5 1025.59 727.5 1022C727.5 1018.41 724.59 1015.5 721 1015.5V1028.5ZM522.363 1048.17C519.531 1050.37 519.024 1054.46 521.23 1057.29C523.436 1060.12 527.52 1060.63 530.352 1058.42L522.363 1048.17ZM615.83 1353.5C535.007 1353.5 468.5 1281.54 468.5 1191.51H455.5C455.5 1287.59 526.739 1366.5 615.83 1366.5V1353.5ZM468.5 1191.51C468.5 1160.32 476.516 1131.23 490.371 1106.55L479.036 1100.19C464.093 1126.8 455.5 1158.08 455.5 1191.51H468.5ZM721 1015.5H616.202V1028.5H721V1015.5ZM616.202 1015.5C581.131 1015.5 548.712 1027.64 522.363 1048.17L530.352 1058.42C554.566 1039.56 584.208 1028.5 616.202 1028.5V1015.5Z" fill="#DA774A"/>
<path d="M462.5 561C430.743 561 405 586.743 405 618.5C405 650.257 430.743 676 462.5 676C494.257 676 520 650.257 520 618.5V561" stroke="#44AB96" stroke-width="13" stroke-linecap="round" stroke-linejoin="round"/>
<path d="M480 224.5C480 266.75 514.026 301 556 301C597.974 301 632 266.75 632 224.5C632 182.25 597.974 148 556 148H480" stroke="#E53855" stroke-width="13" stroke-linecap="round" stroke-linejoin="round"/>
<path d="M205.5 1013.58C168.773 1013.58 139 984.127 139 947.791C139 911.455 168.773 882 205.5 882C242.227 882 272 911.455 272 947.791V1149" stroke="#44AB96" stroke-width="13" stroke-linecap="round" stroke-linejoin="round"/>
<path d="M1595.99 1017C1595.99 1050.69 1622.86 1078 1656 1078C1689.14 1078 1716 1050.69 1716 1017C1716 983.311 1689.14 956 1656 956H1455" stroke="#44AB96" stroke-width="13" stroke-linecap="round" stroke-linejoin="round"/>
<path d="M1100 286.791C1064.65 286.791 1036 315.043 1036 349.895C1036 384.747 1064.65 413 1100 413C1135.35 413 1164 384.747 1164 349.895V147" stroke="#4484AB" stroke-width="13" stroke-linecap="round" stroke-linejoin="round"/>
<path d="M1048.92 1501C1048.92 1468.97 1074.68 1443 1106.46 1443C1138.24 1443 1164 1468.97 1164 1501C1164 1533.03 1138.24 1559 1106.46 1559H1015" stroke="#44AB96" stroke-width="13" stroke-linecap="round" stroke-linejoin="round"/>
<path d="M1223.5 709.578C1255.26 709.578 1281 735.191 1281 766.789C1281 798.386 1255.26 824 1223.5 824C1191.74 824 1166 798.386 1166 766.789V553" stroke="#DA774A" stroke-width="13" stroke-linecap="round" stroke-linejoin="round"/>
<path d="M196.5 715.708C164.744 715.708 139 741.069 139 772.354C139 803.639 164.744 829 196.5 829C228.256 829 254 803.639 254 772.354V541" stroke="#DA774A" stroke-width="13" stroke-linecap="round" stroke-linejoin="round"/>
<path d="M822.704 541C822.704 484.115 777.327 438 721.352 438C665.377 438 620 484.115 620 541C620 597.885 665.377 644 721.352 644H987" stroke="#FFB017" stroke-width="13" stroke-linecap="round" stroke-linejoin="round"/>
<path d="M1632.64 874C1688.63 874 1734 827.885 1734 771C1734 714.115 1688.63 668 1632.64 668H1367" stroke="#44AB96" stroke-width="13" stroke-linecap="round" stroke-linejoin="round"/>
<path fill-rule="evenodd" clip-rule="evenodd" d="M1241 322.5C1241 269.204 1283.74 226 1336.46 226H1434.54C1487.26 226 1530 269.204 1530 322.5V322.5C1530 375.796 1487.26 419 1434.54 419H1336.46C1283.74 419 1241 375.796 1241 322.5V322.5Z" stroke="#DA774A" stroke-width="13" stroke-linecap="round" stroke-linejoin="round"/>
<path fill-rule="evenodd" clip-rule="evenodd" d="M400.5 1018C367.639 1018 341 991.406 341 958.6V789.4C341 756.594 367.639 730 400.5 730V730C433.361 730 460 756.594 460 789.4V958.6C460 991.406 433.361 1018 400.5 1018V1018Z" stroke="#FFB017" stroke-width="13" stroke-linecap="round" stroke-linejoin="round"/>
<path d="M962 942.5V853.166C962 827.669 982.819 807 1008.5 807V807C1034.18 807 1055 827.669 1055 853.166V1031.83C1055 1057.33 1034.18 1078 1008.5 1078V1078V1078C982.819 1078 962 1057.33 962 1031.83V1010.25" stroke="#E53855" stroke-width="13" stroke-linecap="round" stroke-linejoin="round"/>
<path d="M1048 464.93V472.719C1048 517.057 1011.96 553 967.5 553V553C923.041 553 887 517.057 887 472.719V228.281C887 183.943 923.041 148 967.5 148V148C1011.96 148 1048 183.943 1048 228.281V230.678" stroke="#FFB017" stroke-width="13" stroke-linecap="round" stroke-linejoin="round"/>
<path d="M205.75 1099H200.939C166.731 1099 139 1126.76 139 1161V1161C139 1195.24 166.731 1223 200.939 1223H344.061C378.269 1223 406 1195.24 406 1161V1161C406 1126.76 378.269 1099 344.061 1099H339.25" stroke="#FFB017" stroke-width="13" stroke-linecap="round" stroke-linejoin="round"/>
<path d="M885 807V1038.64C885 1107.87 941.636 1164 1011.5 1164C1081.36 1164 1138 1107.87 1138 1038.64V983.909" stroke="#44AB96" stroke-width="13" stroke-linecap="round" stroke-linejoin="round"/>
<path d="M631 1199H838.802C917.888 1199 982 1263.47 982 1343C982 1422.52 917.888 1487 838.802 1487H776.288" stroke="#44AB96" stroke-width="13" stroke-linecap="round" stroke-linejoin="round"/>
<path d="M720 848H670.813C637.779 848 611 821.137 611 788C611 754.863 637.779 728 670.813 728H769.187C802.221 728 829 754.863 829 788V793.33C829 823.524 804.6 848 774.5 848" stroke="#4484AB" stroke-width="13" stroke-linecap="round" stroke-linejoin="round"/>
<path d="M1223.5 619H1279.68C1317.41 619 1348 590.122 1348 554.5C1348 518.878 1317.41 490 1279.68 490H1167.32C1129.59 490 1099 518.878 1099 554.5" stroke="#44AB96" stroke-width="13" stroke-linecap="round" stroke-linejoin="round"/>
<path d="M809 350H674.319C589.091 350 520 419.396 520 505" stroke="#44AB96" stroke-width="13" stroke-linecap="round" stroke-linejoin="round"/>
<path d="M1583.5 1353.84C1615.26 1353.84 1641 1379.4 1641 1410.92C1641 1442.44 1615.26 1468 1583.5 1468C1551.74 1468 1526 1442.44 1526 1410.92V1039" stroke="#E53855" stroke-width="13" stroke-linecap="round" stroke-linejoin="round"/>
<path d="M1153 1391C1153 1332.46 1199.85 1285 1257.63 1285H1442" stroke="#44AB96" stroke-width="13" stroke-linecap="round" stroke-linejoin="round"/>
<path d="M881 728H979.373C1045.44 728 1099 674.274 1099 608" stroke="#4484AB" stroke-width="13" stroke-linecap="round" stroke-linejoin="round"/>
<path d="M1455 1041V1094.76C1455 1149.01 1411 1193 1356.71 1193H1280" stroke="#4484AB" stroke-width="13" stroke-linecap="round" stroke-linejoin="round"/>
<path d="M1641 773H1556.99C1496.24 773 1447 822.697 1447 884" stroke="#DA774A" stroke-width="13" stroke-linecap="round" stroke-linejoin="round"/>
<path d="M352 1559V1467.88C352 1415.42 392.975 1371.47 448 1360" stroke="#44AB96" stroke-width="13" stroke-linecap="round" stroke-linejoin="round"/>
<path d="M178.5 473C178.5 482.313 178.5 599.548 178.5 657" stroke="#44AB96" stroke-width="13" stroke-linecap="round" stroke-linejoin="round"/>
<path d="M570 1558.5C591.009 1558.5 819.389 1558.5 949 1558.5" stroke="#44AB96" stroke-width="13" stroke-linecap="round" stroke-linejoin="round"/>
<path d="M1222.5 896C1222.5 903.693 1222.5 1000.54 1222.5 1048" stroke="#44AB96" stroke-width="13" stroke-linecap="round" stroke-linejoin="round"/>
<path d="M1068.5 1309C1068.5 1312.14 1068.5 1351.64 1068.5 1371" stroke="#44AB96" stroke-width="13" stroke-linecap="round" stroke-linejoin="round"/>
<path d="M1373.5 734C1373.5 730.41 1370.59 727.5 1367 727.5C1363.41 727.5 1360.5 730.41 1360.5 734H1373.5ZM1252.58 1099.61C1248.99 1099.61 1246.08 1102.52 1246.08 1106.11C1246.08 1109.7 1248.99 1112.61 1252.58 1112.61V1099.61ZM1088 1232.5C1084.41 1232.5 1081.5 1235.41 1081.5 1239C1081.5 1242.59 1084.41 1245.5 1088 1245.5V1232.5ZM1221.46 1138.94C1221.46 1135.35 1218.55 1132.44 1214.96 1132.44C1211.37 1132.44 1208.46 1135.35 1208.46 1138.94H1221.46ZM1360.5 734V876.331H1373.5V734H1360.5ZM1360.5 876.331C1360.5 895.086 1345.17 910.366 1326.14 910.366V923.366C1352.24 923.366 1373.5 902.366 1373.5 876.331H1360.5ZM1326.14 910.366C1300.02 910.366 1278.77 931.384 1278.77 957.417H1291.77C1291.77 938.658 1307.11 923.366 1326.14 923.366V910.366ZM1278.77 957.417V965.828H1291.77V957.417H1278.77ZM1278.77 965.828C1278.77 991.86 1300.02 1012.88 1326.14 1012.88V999.879C1307.11 999.879 1291.77 984.586 1291.77 965.828H1278.77ZM1326.14 1012.88C1345.16 1012.88 1360.5 1028.17 1360.5 1046.93H1373.5C1373.5 1020.9 1352.25 999.879 1326.14 999.879V1012.88ZM1360.5 1046.93V1056.24H1373.5V1046.93H1360.5ZM1360.5 1056.24C1360.5 1080.14 1340.96 1099.61 1316.75 1099.61V1112.61C1348.05 1112.61 1373.5 1087.42 1373.5 1056.24H1360.5ZM1316.75 1099.61H1290.72V1112.61H1316.75V1099.61ZM1290.72 1099.61H1252.58V1112.61H1290.72V1099.61ZM1088 1245.5H1114.78V1232.5H1088V1245.5ZM1114.78 1245.5C1173.69 1245.5 1221.46 1197.8 1221.46 1138.94H1208.46C1208.46 1190.6 1166.52 1232.5 1114.78 1232.5V1245.5Z" fill="#FFB017"/>
<path d="M1615 536.921V557.203C1615 585.81 1591.74 609 1563.06 609V609C1534.37 609 1511.1 585.81 1511.1 557.203V540.403C1511.1 512.014 1488.02 489 1459.56 489V489C1431.08 489 1408 512.014 1408 540.403V561.079" stroke="#E53855" stroke-width="13" stroke-linecap="round" stroke-linejoin="round"/>
<path fill-rule="evenodd" clip-rule="evenodd" d="M1223 1432.97C1223 1392.67 1255.68 1360 1296 1360V1360C1336.31 1360 1369 1392.67 1369 1432.97V1486.03C1369 1526.33 1336.31 1559 1296 1559V1559C1255.68 1559 1223 1526.33 1223 1486.03V1432.97Z" stroke="#4484AB" stroke-width="13" stroke-linecap="round" stroke-linejoin="round"/>
<path d="M125 2007C125 1974.97 150.743 1949 182.5 1949C214.257 1949 240 1974.97 240 2007" stroke="#44AB96" stroke-width="13" stroke-linecap="round" stroke-linejoin="round"/>
<path d="M1587.76 1594C1662.45 1594 1723 1654.21 1723 1728.5C1723 1802.79 1662.45 1863 1587.76 1863L1464 1863" stroke="#FFB017" stroke-width="13" stroke-linecap="round" stroke-linejoin="round"/>
<path d="M1596.02 1686C1620.86 1686 1641 1705.47 1641 1729.5C1641 1753.53 1620.86 1773 1596.02 1773L1548 1773" stroke="#44AB96" stroke-width="13" stroke-linecap="round" stroke-linejoin="round"/>
<path d="M1052 2033.96C1048.41 2033.96 1045.5 2036.87 1045.5 2040.46C1045.5 2044.05 1048.41 2046.96 1052 2046.96L1052 2033.96ZM1157.38 1871.04C1153.79 1871.04 1150.88 1873.95 1150.88 1877.54C1150.88 1881.13 1153.79 1884.04 1157.38 1884.04L1157.38 1871.04ZM1358.16 1587.5C1354.57 1587.5 1351.66 1590.41 1351.66 1594C1351.66 1597.59 1354.57 1600.5 1358.16 1600.5L1358.16 1587.5ZM1150.35 1792.95C1150.35 1796.54 1153.26 1799.45 1156.85 1799.45C1160.43 1799.45 1163.35 1796.54 1163.35 1792.95L1150.35 1792.95ZM1328.74 2418C1328.74 2421.59 1331.65 2424.5 1335.24 2424.5C1338.83 2424.5 1341.74 2421.59 1341.74 2418L1328.74 2418ZM1058.5 2126.62C1058.5 2123.03 1055.59 2120.12 1052 2120.12C1048.41 2120.12 1045.5 2123.03 1045.5 2126.62L1058.5 2126.62ZM1052 2046.96L1231.44 2046.96L1231.44 2033.96L1052 2033.96L1052 2046.96ZM1231.44 2046.96C1280.22 2046.96 1319.83 2007.61 1319.83 1959L1306.83 1959C1306.83 2000.37 1273.11 2033.96 1231.44 2033.96L1231.44 2046.96ZM1319.83 1959C1319.83 1910.39 1280.22 1871.04 1231.44 1871.04L1231.44 1884.04C1273.11 1884.04 1306.83 1917.64 1306.83 1959L1319.83 1959ZM1231.44 1871.04L1157.38 1871.04L1157.38 1884.04L1231.44 1884.04L1231.44 1871.04ZM1358.16 1600.5L1368.86 1600.5L1368.86 1587.5L1358.16 1587.5L1358.16 1600.5ZM1368.86 1600.5C1396.82 1600.5 1419.5 1623.2 1419.5 1651.2L1432.5 1651.2C1432.5 1616.03 1404.01 1587.5 1368.86 1587.5L1368.86 1600.5ZM1419.5 1651.2C1419.5 1679.22 1396.82 1701.92 1368.86 1701.92L1368.86 1714.92C1404.01 1714.92 1432.5 1686.38 1432.5 1651.2L1419.5 1651.2ZM1368.86 1701.92L1241.28 1701.92L1241.28 1714.92L1368.86 1714.92L1368.86 1701.92ZM1241.28 1701.92C1191.05 1701.92 1150.35 1742.68 1150.35 1792.95L1163.35 1792.95C1163.35 1749.85 1198.24 1714.92 1241.28 1714.92L1241.28 1701.92ZM1341.74 2418L1341.74 2353.71L1328.74 2353.71L1328.74 2418L1341.74 2418ZM1341.74 2353.71C1341.74 2271.83 1275.43 2205.43 1193.62 2205.43L1193.62 2218.43C1268.24 2218.43 1328.74 2278.99 1328.74 2353.71L1341.74 2353.71ZM1193.62 2205.43L1137.21 2205.43L1137.21 2218.43L1193.62 2218.43L1193.62 2205.43ZM1137.21 2205.43C1093.75 2205.43 1058.5 2170.16 1058.5 2126.62L1045.5 2126.62C1045.5 2177.32 1086.55 2218.43 1137.21 2218.43L1137.21 2205.43Z" fill="#DA774A"/>
<ellipse cx="1027" cy="1810.5" rx="58" ry="57.5" transform="rotate(180 1027 1810.5)" stroke="#E53855" stroke-width="13" stroke-linecap="round" stroke-linejoin="round"/>
<path d="M1243.17 1786.5C1239.58 1786.5 1236.67 1789.41 1236.67 1793C1236.67 1796.59 1239.58 1799.5 1243.17 1799.5L1243.17 1786.5ZM1368.63 2046.45C1366.87 2049.58 1367.98 2053.54 1371.11 2055.3C1374.24 2057.05 1378.21 2055.94 1379.96 2052.81L1368.63 2046.45ZM1138 2124.5C1134.41 2124.5 1131.5 2127.41 1131.5 2131C1131.5 2134.59 1134.41 2137.5 1138 2137.5L1138 2124.5ZM1242.8 2131L1242.8 2137.5L1242.8 2131ZM1336.64 2104.83C1339.47 2102.63 1339.98 2098.54 1337.77 2095.71C1335.56 2092.88 1331.48 2092.37 1328.65 2094.58L1336.64 2104.83ZM1243.17 1799.5C1323.99 1799.5 1390.5 1871.46 1390.5 1961.49L1403.5 1961.49C1403.5 1865.41 1332.26 1786.5 1243.17 1786.5L1243.17 1799.5ZM1390.5 1961.49C1390.5 1992.68 1382.48 2021.77 1368.63 2046.45L1379.96 2052.81C1394.91 2026.2 1403.5 1994.92 1403.5 1961.49L1390.5 1961.49ZM1138 2137.5L1242.8 2137.5L1242.8 2124.5L1138 2124.5L1138 2137.5ZM1242.8 2137.5C1277.87 2137.5 1310.29 2125.36 1336.64 2104.83L1328.65 2094.58C1304.43 2113.44 1274.79 2124.5 1242.8 2124.5L1242.8 2137.5Z" fill="#DA774A"/>
<path d="M1653.5 2139.42C1690.23 2139.42 1720 2168.87 1720 2205.21C1720 2241.54 1690.23 2271 1653.5 2271C1616.77 2271 1587 2241.54 1587 2205.21L1587 2004" stroke="#44AB96" stroke-width="13" stroke-linecap="round" stroke-linejoin="round"/>
<path d="M263.012 2136C263.012 2102.31 236.14 2075 203 2075C169.859 2075 143 2102.31 143 2136C143 2169.69 169.859 2197 203 2197L404 2197" stroke="#44AB96" stroke-width="13" stroke-linecap="round" stroke-linejoin="round"/>
<path d="M810.081 1652C810.081 1684.03 784.319 1710 752.541 1710C720.761 1710 695 1684.03 695 1652C695 1619.97 720.761 1594 752.541 1594L844 1594" stroke="#44AB96" stroke-width="13" stroke-linecap="round" stroke-linejoin="round"/>
<path d="M635.5 2443.42C603.743 2443.42 578 2417.81 578 2386.21C578 2354.61 603.743 2329 635.5 2329C667.257 2329 693 2354.61 693 2386.21L693 2600" stroke="#DA774A" stroke-width="13" stroke-linecap="round" stroke-linejoin="round"/>
<path d="M1662.5 2437.29C1694.26 2437.29 1720 2411.93 1720 2380.65C1720 2349.36 1694.26 2324 1662.5 2324C1630.74 2324 1605 2349.36 1605 2380.65L1605 2612" stroke="#DA774A" stroke-width="13" stroke-linecap="round" stroke-linejoin="round"/>
<path d="M226.357 2279C170.371 2279 125 2325.12 125 2382C125 2438.89 170.371 2485 226.357 2485L492 2485" stroke="#44AB96" stroke-width="13" stroke-linecap="round" stroke-linejoin="round"/>
<path fill-rule="evenodd" clip-rule="evenodd" d="M1458.5 2135C1491.36 2135 1518 2161.59 1518 2194.4L1518 2363.6C1518 2396.41 1491.36 2423 1458.5 2423V2423C1425.64 2423 1399 2396.41 1399 2363.6L1399 2194.4C1399 2161.59 1425.64 2135 1458.5 2135V2135Z" stroke="#FFB017" stroke-width="13" stroke-linecap="round" stroke-linejoin="round"/>
<path d="M897 2210.5L897 2299.83C897 2325.33 876.181 2346 850.5 2346V2346C824.819 2346 804 2325.33 804 2299.83L804 2121.17C804 2095.67 824.819 2075 850.5 2075V2075V2075C876.181 2075 897 2095.67 897 2121.17L897 2142.75" stroke="#E53855" stroke-width="13" stroke-linecap="round" stroke-linejoin="round"/>
<path d="M1653.25 2054L1658.06 2054C1692.27 2054 1720 2026.24 1720 1992V1992C1720 1957.76 1692.27 1930 1658.06 1930L1514.94 1930C1480.73 1930 1453 1957.76 1453 1992V1992C1453 2026.24 1480.73 2054 1514.94 2054L1519.75 2054" stroke="#FFB017" stroke-width="13" stroke-linecap="round" stroke-linejoin="round"/>
<path d="M974 2346L974 2114.36C974 2045.13 917.364 1989 847.5 1989C777.636 1989 721 2045.13 721 2114.36L721 2169.09" stroke="#44AB96" stroke-width="13" stroke-linecap="round" stroke-linejoin="round"/>
<path d="M1228 1954L1020.2 1954C941.112 1954 877 1889.53 877 1810C877 1730.48 941.112 1666 1020.2 1666L1082.71 1666" stroke="#44AB96" stroke-width="13" stroke-linecap="round" stroke-linejoin="round"/>
<path d="M1139 2305L1188.19 2305C1221.22 2305 1248 2331.86 1248 2365C1248 2398.14 1221.22 2425 1188.19 2425L1089.81 2425C1056.78 2425 1030 2398.14 1030 2365L1030 2359.67C1030 2329.48 1054.4 2305 1084.5 2305" stroke="#4484AB" stroke-width="13" stroke-linecap="round" stroke-linejoin="round"/>
<path d="M275.5 1799.16C243.743 1799.16 218 1773.6 218 1742.08C218 1710.56 243.743 1685 275.5 1685C307.257 1685 333 1710.56 333 1742.08L333 2114" stroke="#E53855" stroke-width="13" stroke-linecap="round" stroke-linejoin="round"/>
<path d="M706 1762C706 1820.54 659.153 1868 601.365 1868L417 1868" stroke="#44AB96" stroke-width="13" stroke-linecap="round" stroke-linejoin="round"/>
<path d="M978 2425L879.627 2425C813.559 2425 760 2478.73 760 2545" stroke="#4484AB" stroke-width="13" stroke-linecap="round" stroke-linejoin="round"/>
<path d="M404 2112L404 2058.25C404 2003.99 448.002 1960 502.288 1960L579 1960" stroke="#4484AB" stroke-width="13" stroke-linecap="round" stroke-linejoin="round"/>
<path d="M218 2380L302.007 2380C362.758 2380 412 2330.3 412 2269" stroke="#DA774A" stroke-width="13" stroke-linecap="round" stroke-linejoin="round"/>
<path d="M1507 1594L1507 1685.12C1507 1737.58 1466.02 1781.53 1411 1793" stroke="#44AB96" stroke-width="13" stroke-linecap="round" stroke-linejoin="round"/>
<path d="M1289 1594.5C1267.99 1594.5 1039.61 1594.5 910 1594.5" stroke="#44AB96" stroke-width="13" stroke-linecap="round" stroke-linejoin="round"/>
<path d="M636.5 2257C636.5 2249.31 636.5 2152.46 636.5 2105" stroke="#44AB96" stroke-width="13" stroke-linecap="round" stroke-linejoin="round"/>
<path d="M790.5 1844C790.5 1840.86 790.5 1801.36 790.5 1782" stroke="#44AB96" stroke-width="13" stroke-linecap="round" stroke-linejoin="round"/>
<path d="M485.5 2419C485.5 2422.59 488.41 2425.5 492 2425.5C495.59 2425.5 498.5 2422.59 498.5 2419L485.5 2419ZM573.73 2195.58L567.23 2195.58L573.73 2195.58ZM573.73 2187.17L580.23 2187.17L573.73 2187.17ZM542.249 2046.89L542.249 2040.39L542.249 2046.89ZM568.281 2046.89L568.281 2053.39L568.281 2046.89ZM606.421 2053.39C610.011 2053.39 612.921 2050.48 612.921 2046.89C612.921 2043.31 610.011 2040.39 606.421 2040.39L606.421 2053.39ZM771 1920.5C774.59 1920.5 777.5 1917.59 777.5 1914C777.5 1910.41 774.59 1907.5 771 1907.5L771 1920.5ZM637.539 2014.06C637.539 2017.65 640.449 2020.56 644.039 2020.56C647.629 2020.56 650.539 2017.65 650.539 2014.06L637.539 2014.06ZM498.5 2419L498.5 2276.67L485.5 2276.67L485.5 2419L498.5 2419ZM498.5 2276.67C498.5 2257.91 513.835 2242.63 532.865 2242.63L532.865 2229.63C506.756 2229.63 485.5 2250.63 485.5 2276.67L498.5 2276.67ZM532.865 2242.63C558.977 2242.63 580.23 2221.62 580.23 2195.58L567.23 2195.58C567.23 2214.34 551.892 2229.63 532.865 2229.63L532.865 2242.63ZM580.23 2195.58L580.23 2187.17L567.23 2187.17L567.23 2195.58L580.23 2195.58ZM580.23 2187.17C580.23 2161.14 558.977 2140.12 532.865 2140.12L532.865 2153.12C551.892 2153.12 567.23 2168.41 567.23 2187.17L580.23 2187.17ZM532.865 2140.12C513.838 2140.12 498.5 2124.83 498.5 2106.07L485.5 2106.07C485.5 2132.1 506.753 2153.12 532.865 2153.12L532.865 2140.12ZM498.5 2106.07L498.5 2096.76L485.5 2096.76L485.5 2106.07L498.5 2106.07ZM498.5 2096.76C498.5 2072.86 518.039 2053.39 542.249 2053.39L542.249 2040.39C510.954 2040.39 485.5 2065.58 485.5 2096.76L498.5 2096.76ZM542.249 2053.39L568.281 2053.39L568.281 2040.39L542.249 2040.39L542.249 2053.39ZM568.281 2053.39L606.421 2053.39L606.421 2040.39L568.281 2040.39L568.281 2053.39ZM771 1907.5L744.224 1907.5L744.224 1920.5L771 1920.5L771 1907.5ZM744.224 1907.5C685.311 1907.5 637.539 1955.2 637.539 2014.06L650.539 2014.06C650.539 1962.4 692.475 1920.5 744.224 1920.5L744.224 1907.5Z" fill="#FFB017"/>
<path fill-rule="evenodd" clip-rule="evenodd" d="M636 1720.03C636 1760.33 603.317 1793 563 1793V1793C522.687 1793 490 1760.33 490 1720.03L490 1666.97C490 1626.67 522.687 1594 563 1594V1594C603.316 1594 636 1626.67 636 1666.97L636 1720.03Z" stroke="#4484AB" stroke-width="13" stroke-linecap="round" stroke-linejoin="round"/>
</g>
</svg>
