<svg width="1853" height="2587" viewBox="0 0 1853 2587" fill="none" xmlns="http://www.w3.org/2000/svg">
<path d="M1763.68 0.473511H89.3152C40.3416 0.473511 0.640625 40.0786 0.640625 88.9342V2498.54C0.640625 2547.39 40.3416 2587 89.3152 2587H1763.68C1812.66 2587 1852.36 2547.39 1852.36 2498.54V88.9342C1852.36 40.0786 1812.66 0.473511 1763.68 0.473511Z" fill="white"/>
<mask id="mask0" mask-type="alpha" maskUnits="userSpaceOnUse" x="118" y="147" width="1617" height="2294">
<path d="M1657.37 147.435H195.624C152.869 147.435 118.21 182.54 118.21 225.844V2361.63C118.21 2404.93 152.869 2440.04 195.624 2440.04H1657.37C1700.13 2440.04 1734.79 2404.93 1734.79 2361.63V225.844C1734.79 182.54 1700.13 147.435 1657.37 147.435Z" fill="#F71111"/>
</mask>
<g mask="url(#mask0)">
<path d="M579.673 1060.86C711.16 1060.86 817.75 955.329 817.75 825.153C817.75 694.977 711.16 589.451 579.673 589.451C448.186 589.451 341.595 694.977 341.595 825.153C341.595 955.329 448.186 1060.86 579.673 1060.86Z" fill="#8B5CF6"/>
<path d="M580.849 964.701C658.042 964.701 720.615 902.747 720.615 826.325C720.615 749.904 658.042 687.954 580.849 687.954C503.657 687.954 441.081 749.904 441.081 826.325C441.081 902.747 503.657 964.701 580.849 964.701Z" fill="#2D374C"/>
<path d="M580.852 899.034C621.411 899.034 654.288 866.482 654.288 826.327C654.288 786.176 621.411 753.624 580.852 753.624C540.294 753.624 507.415 786.176 507.415 826.327C507.415 866.482 540.294 899.034 580.852 899.034Z" fill="#F1E3CF"/>
<path d="M1531.98 1532.27C1400.49 1532.27 1293.9 1637.8 1293.9 1767.98C1293.9 1898.15 1400.49 2003.68 1531.98 2003.68C1663.47 2003.68 1770.06 1898.15 1770.06 1767.98C1770.06 1637.8 1663.47 1532.27 1531.98 1532.27Z" fill="#8B5CF6"/>
<path d="M1533.18 1628.43C1455.98 1628.43 1393.4 1690.38 1393.4 1766.8C1393.4 1843.22 1455.98 1905.17 1533.18 1905.17C1610.37 1905.17 1672.94 1843.22 1672.94 1766.8C1672.94 1690.38 1610.37 1628.43 1533.18 1628.43Z" fill="#2D374C"/>
<path d="M1533.16 1694.09C1492.6 1694.09 1459.72 1726.64 1459.72 1766.8C1459.72 1806.95 1492.6 1839.5 1533.16 1839.5C1573.72 1839.5 1606.6 1806.95 1606.6 1766.8C1606.6 1726.64 1573.72 1694.09 1533.16 1694.09Z" fill="#F1E3CF"/>
<path d="M1059.34 944.453C1059.34 975.172 1071.66 1004.63 1093.61 1026.35C1115.55 1048.07 1145.3 1060.28 1176.33 1060.28C1207.36 1060.28 1237.11 1048.07 1259.05 1026.35C1281 1004.63 1293.32 975.172 1293.32 944.453C1293.32 913.735 1281 884.275 1259.05 862.552C1237.11 840.833 1207.36 828.629 1176.33 828.629C1145.3 828.629 1115.55 840.833 1093.61 862.552C1071.66 884.275 1059.34 913.735 1059.34 944.453Z" fill="#4F46E5"/>
<path d="M818.331 944.453C818.331 975.172 830.656 1004.63 852.597 1026.35C874.537 1048.07 904.294 1060.28 935.321 1060.28C966.349 1060.28 996.106 1048.07 1018.05 1026.35C1039.99 1004.63 1052.31 975.172 1052.31 944.453C1052.31 913.735 1039.99 884.275 1018.05 862.552C996.106 840.833 966.349 828.629 935.321 828.629C904.294 828.629 874.537 840.833 852.597 862.552C830.656 884.275 818.331 913.735 818.331 944.453Z" fill="#8B5CF6"/>
<path d="M1059.34 710.488C1059.34 741.206 1071.66 770.669 1093.61 792.389C1115.55 814.112 1145.3 826.312 1176.33 826.312C1207.36 826.312 1237.11 814.112 1259.05 792.389C1281 770.669 1293.32 741.206 1293.32 710.488C1293.32 679.769 1281 650.31 1259.05 628.587C1237.11 606.867 1207.36 594.664 1176.33 594.664C1145.3 594.664 1115.55 606.867 1093.61 628.587C1071.66 650.31 1059.34 679.769 1059.34 710.488Z" fill="#8B5CF6"/>
<path d="M817.742 589.451V707.59C817.823 738.999 830.501 769.091 852.99 791.245C875.478 813.402 905.932 825.804 937.66 825.732C969.385 825.804 999.839 813.402 1022.33 791.245C1044.82 769.091 1057.49 738.999 1057.57 707.59C1057.49 676.181 1044.82 646.092 1022.33 623.934C999.839 601.781 969.385 589.375 937.66 589.451H817.742Z" fill="#818CF8"/>
<path d="M1654.24 705.273H1410.9V946.191H1654.24V705.273Z" fill="#F1E3CF"/>
<path d="M1530.78 722.484L1425.88 826.34L1530.78 930.192L1635.68 826.34L1530.78 722.484Z" fill="#818CF8"/>
<path d="M1724.44 634.626H1580.54C1580.54 672.412 1595.7 708.646 1622.68 735.364C1649.67 762.082 1686.27 777.092 1724.44 777.092V634.626Z" fill="#4F46E5"/>
<path d="M1724.44 1015.69V873.224C1686.27 873.224 1649.67 888.234 1622.68 914.952C1595.7 941.666 1580.54 977.904 1580.54 1015.69H1724.44Z" fill="#4F46E5"/>
<path d="M1343.04 1015.69H1486.94C1486.94 977.904 1471.78 941.666 1444.8 914.952C1417.81 888.234 1381.21 873.224 1343.04 873.224V1015.69Z" fill="#4F46E5"/>
<path d="M1343.04 634.626V777.092C1381.21 777.092 1417.81 762.082 1444.8 735.364C1471.78 708.646 1486.94 672.412 1486.94 634.626H1343.04Z" fill="#4F46E5"/>
<path d="M1055.82 589.452C1118.97 589.452 1179.52 564.618 1224.17 520.416C1268.82 476.212 1293.9 416.259 1293.9 353.747C1293.9 291.234 1268.82 231.282 1224.17 187.079C1179.52 142.876 1118.97 118.043 1055.82 118.043H817.742V353.747C817.742 416.259 842.826 476.212 887.474 520.416C932.122 564.618 992.68 589.452 1055.82 589.452Z" fill="#F1E3CF"/>
<path d="M960.112 399.941C997.871 399.941 1034.08 385.091 1060.78 358.658C1087.48 332.225 1102.48 296.374 1102.48 258.992C1102.48 221.61 1087.48 185.759 1060.78 159.326C1034.08 132.893 997.871 118.043 960.112 118.043H817.742V258.992C817.742 296.374 832.743 332.225 859.44 358.658C886.142 385.091 922.353 399.941 960.112 399.941Z" fill="#2D374C"/>
<path d="M1055.83 500.022C1094.38 500.022 1131.35 484.86 1158.61 457.873C1185.87 430.885 1201.19 394.281 1201.19 356.114C1201.19 317.947 1185.87 281.343 1158.61 254.354C1131.35 227.366 1094.38 212.205 1055.83 212.205C1017.28 212.205 980.303 227.366 953.043 254.354C925.783 281.343 910.469 317.947 910.469 356.114C910.469 394.281 925.783 430.885 953.043 457.873C980.303 484.86 1017.28 500.022 1055.83 500.022Z" fill="#818CF8"/>
<path d="M1055.82 440.359C1067 440.359 1078.06 438.181 1088.38 433.947C1098.71 429.713 1108.09 423.508 1115.99 415.686C1123.89 407.863 1130.16 398.576 1134.44 388.355C1138.71 378.134 1140.91 367.179 1140.91 356.116C1140.91 345.053 1138.72 334.098 1134.44 323.877C1130.16 313.656 1123.89 304.369 1115.99 296.546C1108.09 288.723 1098.71 282.518 1088.39 278.284C1078.06 274.05 1067 271.872 1055.82 271.872C1044.65 271.872 1033.58 274.051 1023.26 278.285C1012.93 282.518 1003.56 288.724 995.652 296.547C987.752 304.369 981.484 313.656 977.209 323.877C972.93 334.098 970.732 345.053 970.732 356.116C970.732 378.459 979.695 399.886 995.652 415.685C1011.61 431.483 1033.25 440.359 1055.82 440.359Z" fill="#2D374C"/>
<path d="M1293.9 354.925V589.452H1530.79C1594.25 589.452 1655.11 564.492 1699.98 520.069C1744.85 475.645 1770.06 415.393 1770.06 352.568V118.043H1533.17C1469.71 118.043 1408.85 143 1363.98 187.424C1319.11 231.848 1293.9 292.1 1293.9 354.925Z" fill="#818CF8"/>
<path d="M1396.79 353.745C1396.79 390.498 1411.54 425.747 1437.79 451.736C1464.04 477.725 1499.64 492.325 1536.77 492.325C1573.89 492.325 1609.49 477.725 1635.74 451.736C1662 425.747 1676.74 390.498 1676.74 353.745V215.165H1536.77C1499.64 215.165 1464.04 229.765 1437.79 255.754C1411.54 281.743 1396.79 316.991 1396.79 353.745Z" fill="#2D374C"/>
<path d="M1293.9 496.354V590.636H1389.14C1427.02 590.636 1463.36 575.738 1490.14 549.215C1516.93 522.693 1531.98 486.723 1531.98 449.214V354.932H1436.75C1398.87 354.932 1362.53 369.832 1335.74 396.354C1308.95 422.876 1293.9 458.847 1293.9 496.354Z" fill="#8B5CF6"/>
<path d="M1055.9 1493.51C1166.39 1493.51 1255.96 1404.84 1255.96 1295.45C1255.96 1186.07 1166.39 1097.39 1055.9 1097.39C945.413 1097.39 855.847 1186.07 855.847 1295.45C855.847 1404.84 945.413 1493.51 1055.9 1493.51Z" fill="#F1E3CF"/>
<path d="M1048.88 1532.27C987.576 1532.27 928.786 1508.16 885.441 1465.25C842.096 1422.33 817.742 1364.13 817.742 1303.44V1296.56H824.686C885.988 1296.56 944.779 1320.67 988.124 1363.58C1031.47 1406.5 1055.82 1464.7 1055.82 1525.39V1532.27H1048.88Z" fill="#4F46E5"/>
<path d="M1286.96 1296.56H1293.9V1303.44C1293.9 1364.13 1269.55 1422.33 1226.2 1465.25C1182.86 1508.16 1124.07 1532.27 1062.77 1532.27H1055.82V1525.39C1055.82 1464.7 1080.17 1406.5 1123.52 1363.58C1166.87 1320.67 1225.65 1296.56 1286.96 1296.56Z" fill="#818CF8"/>
<path d="M1062.77 1296.56H1055.82V1289.69C1055.82 1229 1080.17 1170.8 1123.52 1127.88C1166.87 1084.97 1225.65 1060.86 1286.96 1060.86H1293.9V1067.73C1293.9 1128.43 1269.55 1186.63 1226.2 1229.54C1182.86 1272.45 1124.07 1296.56 1062.77 1296.56Z" fill="#4F46E5"/>
<path d="M824.686 1060.86C885.988 1060.86 944.779 1084.97 988.124 1127.88C1031.47 1170.8 1055.82 1229 1055.82 1289.69V1296.56H1048.88C987.576 1296.56 928.786 1272.45 885.441 1229.54C842.096 1186.63 817.742 1128.43 817.742 1067.73V1060.86H824.686Z" fill="#818CF8"/>
<path d="M338.619 118.043V589.452H-137.538C-137.538 329.1 75.6459 118.043 338.619 118.043Z" fill="#4F46E5"/>
<path d="M341.594 321.895V589.451H70.6777C70.6777 441.683 191.97 321.895 341.594 321.895Z" fill="#F1E3CF"/>
<path d="M341.582 466.675V589.451H217.266C217.286 573.305 220.517 557.326 226.776 542.42C233.034 527.511 242.197 513.973 253.74 502.573C265.284 491.172 278.983 482.134 294.055 475.975C309.127 469.815 325.277 466.655 341.582 466.675Z" fill="#2D374C"/>
<path d="M1770.06 1060.86V1532.27H1293.9C1293.9 1271.92 1507.09 1060.86 1770.06 1060.86Z" fill="#818CF8"/>
<path d="M1770.06 1264.05V1532.26H1499.81C1499.81 1384.13 1620.8 1264.05 1770.06 1264.05Z" fill="#F1E3CF"/>
<path d="M1531.98 2003.67C1579.07 2003.67 1625.1 2017.5 1664.25 2043.4C1703.4 2069.3 1733.92 2106.11 1751.94 2149.18C1769.96 2192.25 1774.67 2239.64 1765.48 2285.36C1756.3 2331.08 1733.62 2373.08 1700.33 2406.05C1667.03 2439.01 1624.61 2461.46 1578.43 2470.55C1532.24 2479.65 1484.38 2474.98 1440.87 2457.14C1397.37 2439.3 1360.19 2409.09 1334.03 2370.33C1307.87 2331.57 1293.9 2285.99 1293.9 2239.38C1293.9 2176.87 1318.99 2116.92 1363.64 2072.71C1408.28 2028.51 1468.84 2003.67 1531.98 2003.67Z" fill="#818CF8"/>
<path d="M1533.15 2098.65C1561.49 2098.65 1589.2 2106.98 1612.77 2122.57C1636.33 2138.16 1654.7 2160.32 1665.55 2186.24C1676.4 2212.17 1679.24 2240.7 1673.71 2268.22C1668.18 2295.75 1654.53 2321.03 1634.48 2340.87C1614.44 2360.71 1588.9 2374.22 1561.1 2379.7C1533.3 2385.17 1504.49 2382.37 1478.3 2371.62C1452.12 2360.89 1429.73 2342.7 1413.98 2319.37C1398.23 2296.03 1389.83 2268.6 1389.83 2240.54C1389.83 2202.91 1404.93 2166.82 1431.81 2140.21C1458.68 2113.6 1495.14 2098.65 1533.15 2098.65Z" fill="#F1E3CF"/>
<path d="M1535.49 2166.99C1550.65 2166.99 1565.46 2171.44 1578.07 2179.78C1590.67 2188.11 1600.49 2199.96 1606.29 2213.82C1612.09 2227.68 1613.61 2242.94 1610.65 2257.65C1607.7 2272.37 1600.39 2285.89 1589.68 2296.5C1578.96 2307.11 1565.31 2314.33 1550.44 2317.26C1535.58 2320.19 1520.17 2318.69 1506.17 2312.95C1492.17 2307.2 1480.2 2297.48 1471.78 2285C1463.36 2272.53 1458.86 2257.86 1458.86 2242.85C1458.86 2222.73 1466.94 2203.44 1481.31 2189.21C1495.68 2174.98 1515.17 2166.99 1535.49 2166.99Z" fill="#2D374C"/>
<path d="M1770.06 2188.99V2475.08H1481.09C1481.09 2399.21 1511.54 2326.44 1565.73 2272.79C1619.92 2219.14 1693.42 2188.99 1770.06 2188.99Z" fill="#4F46E5"/>
<path d="M107.03 1648.67C107.03 1625.76 113.892 1603.37 126.747 1584.32C139.602 1565.27 157.874 1550.43 179.251 1541.66C200.628 1532.89 224.152 1530.6 246.846 1535.07C269.54 1539.54 290.386 1550.57 306.747 1566.77C323.109 1582.97 334.251 1603.6 338.766 1626.07C343.28 1648.54 340.963 1671.83 332.108 1692.99C323.253 1714.16 308.258 1732.25 289.019 1744.97C269.78 1757.7 247.161 1764.49 224.022 1764.49C192.994 1764.49 163.236 1752.29 141.296 1730.57C119.356 1708.85 107.03 1679.39 107.03 1648.67Z" fill="#4F46E5"/>
<path d="M107.03 1882.64C107.03 1859.73 113.892 1837.34 126.747 1818.29C139.602 1799.24 157.874 1784.4 179.251 1775.63C200.628 1766.86 224.152 1764.57 246.846 1769.04C269.54 1773.51 290.386 1784.54 306.747 1800.74C323.109 1816.93 334.251 1837.57 338.766 1860.04C343.28 1882.51 340.963 1905.8 332.108 1926.96C323.253 1948.13 308.258 1966.21 289.019 1978.94C269.78 1991.67 247.161 1998.46 224.022 1998.46C192.994 1998.46 163.236 1986.26 141.296 1964.54C119.356 1942.82 107.03 1913.36 107.03 1882.64Z" fill="#8B5CF6"/>
<path d="M458.591 1887.85H701.935V1646.93H458.591V1887.85Z" fill="#F1E3CF"/>
<path d="M473.573 1766.78L578.473 1870.64L683.371 1766.78L578.473 1662.93L473.573 1766.78Z" fill="#818CF8"/>
<path d="M772.127 1958.51H628.228C628.228 1920.72 643.389 1884.49 670.375 1857.77C697.361 1831.05 733.963 1816.04 772.127 1816.04V1958.51Z" fill="#4F46E5"/>
<path d="M772.127 1577.44V1719.9C733.963 1719.9 697.361 1704.89 670.375 1678.18C643.389 1651.46 628.228 1615.22 628.228 1577.44H772.127Z" fill="#4F46E5"/>
<path d="M390.735 1577.44H534.636C534.636 1615.22 519.475 1651.46 492.488 1678.18C465.502 1704.89 428.9 1719.9 390.735 1719.9V1577.44Z" fill="#4F46E5"/>
<path d="M390.735 1958.51V1816.04C428.9 1816.04 465.502 1831.05 492.488 1857.77C519.475 1884.49 534.636 1920.72 534.636 1958.51H390.735Z" fill="#4F46E5"/>
<path d="M408.589 333.608H556.939V186.737H408.589V333.608Z" fill="#F1E3CF"/>
<path d="M408.589 518.383H556.939V371.512H408.589V518.383Z" fill="#F1E3CF"/>
<path d="M600.013 333.608H748.363V186.737H600.013V333.608Z" fill="#F1E3CF"/>
<path d="M600.013 518.383H748.363V371.512H600.013V518.383Z" fill="#F1E3CF"/>
<path d="M446.879 293.342H516.268V224.644H446.879V293.342Z" fill="#2D374C"/>
<path d="M446.879 478.113H516.268V409.415H446.879V478.113Z" fill="#2D374C"/>
<path d="M638.288 293.342H707.677V224.644H638.288V293.342Z" fill="#2D374C"/>
<path d="M638.288 478.113H707.677V409.415H638.288V478.113Z" fill="#2D374C"/>
<path d="M-62.6934 1296.81L106.321 1464.14L275.335 1296.81L106.321 1129.48L-62.6934 1296.81Z" fill="#2D374C"/>
<path d="M103.512 2003.67C166.655 2003.67 227.211 2028.51 271.859 2072.71C316.507 2116.92 341.59 2176.87 341.59 2239.38C341.59 2301.89 316.507 2361.84 271.859 2406.05C227.211 2450.25 166.655 2475.08 103.512 2475.08H-134.566V2239.38C-134.566 2176.87 -109.482 2116.92 -64.8343 2072.71C-20.1859 2028.51 40.3701 2003.67 103.512 2003.67Z" fill="#F1E3CF"/>
<path d="M341.595 2238.2V2003.67H578.483C641.939 2003.67 702.8 2028.63 747.671 2073.06C792.542 2117.48 817.75 2177.73 817.75 2240.56V2475.08H580.863C517.405 2475.08 456.547 2450.13 411.675 2405.7C366.804 2361.28 341.595 2301.03 341.595 2238.2Z" fill="#818CF8"/>
<path d="M444.469 2239.38C444.469 2202.63 459.216 2167.38 485.467 2141.39C511.717 2115.4 547.321 2100.8 584.445 2100.8C621.569 2100.8 657.172 2115.4 683.424 2141.39C709.672 2167.38 724.421 2202.63 724.421 2239.38V2377.96H584.445C547.321 2377.96 511.717 2363.36 485.467 2337.37C459.216 2311.38 444.469 2276.13 444.469 2239.38Z" fill="#2D374C"/>
<path d="M341.595 2096.77V2002.49H436.826C474.711 2002.49 511.045 2017.39 537.834 2043.91C564.623 2070.43 579.673 2106.4 579.673 2143.91V2238.19H484.442C446.556 2238.19 410.223 2223.29 383.434 2196.77C356.645 2170.25 341.595 2134.28 341.595 2096.77Z" fill="#8B5CF6"/>
<path d="M579.673 1532.27C516.531 1532.27 455.974 1507.43 411.326 1463.23C366.678 1419.03 341.595 1359.08 341.595 1296.56C341.595 1234.05 366.678 1174.1 411.326 1129.9C455.974 1085.69 516.531 1060.86 579.673 1060.86H817.75V1296.56C817.75 1359.08 792.666 1419.03 748.018 1463.23C703.369 1507.43 642.815 1532.27 579.673 1532.27Z" fill="#F1E3CF"/>
<path d="M675.388 1342.76C637.629 1342.76 601.417 1327.91 574.717 1301.48C548.018 1275.04 533.019 1239.19 533.019 1201.81C533.019 1164.43 548.018 1128.58 574.717 1102.14C601.417 1075.71 637.629 1060.86 675.388 1060.86H817.755V1201.81C817.755 1239.19 802.758 1275.04 776.057 1301.48C749.359 1327.91 713.144 1342.76 675.388 1342.76Z" fill="#4F46E5"/>
<path d="M579.666 1442.84C550.917 1442.84 522.813 1434.4 498.909 1418.58C475.005 1402.77 456.374 1380.3 445.372 1354C434.371 1327.71 431.492 1298.77 437.101 1270.86C442.71 1242.94 456.553 1217.3 476.882 1197.17C497.211 1177.04 523.111 1163.34 551.308 1157.78C579.505 1152.23 608.732 1155.08 635.292 1165.98C661.855 1176.87 684.555 1195.31 700.526 1218.98C716.498 1242.64 725.026 1270.47 725.026 1298.93C725.026 1337.1 709.712 1373.7 682.452 1400.69C655.188 1427.68 618.218 1442.84 579.666 1442.84Z" fill="#818CF8"/>
<path d="M579.676 1383.18C562.847 1383.18 546.395 1378.23 532.402 1368.98C518.409 1359.72 507.502 1346.57 501.062 1331.17C494.622 1315.78 492.937 1298.84 496.22 1282.5C499.503 1266.16 507.607 1251.15 519.507 1239.36C531.408 1227.58 546.569 1219.56 563.076 1216.31C579.582 1213.06 596.691 1214.73 612.239 1221.1C627.789 1227.48 641.077 1238.28 650.427 1252.13C659.776 1265.98 664.767 1282.27 664.767 1298.93C664.767 1321.28 655.801 1342.7 639.844 1358.5C623.886 1374.3 602.244 1383.18 579.676 1383.18Z" fill="#2D374C"/>
<path d="M341.59 589.451V1060.86H-134.566L341.59 589.451Z" fill="#818CF8"/>
<path d="M-134.566 589.451L341.59 1060.86H-134.566V589.451Z" fill="#F1E3CF"/>
<path d="M1177.25 2003.67H936.79L1057.02 1884.64L1177.25 2003.67Z" fill="#8B5CF6"/>
<path d="M818.934 2003.68V1532.27H1295.09L818.934 2003.68Z" fill="#818CF8"/>
<path d="M1295.09 2003.68L818.934 1532.27H1295.09V2003.68Z" fill="#F1E3CF"/>
<path d="M936.79 2003.67H1177.25L1057.02 2122.71L936.79 2003.67Z" fill="#8B5CF6"/>
<path d="M1295.09 2003.67V2475.08H818.934L1295.09 2003.67Z" fill="#818CF8"/>
<path d="M818.934 2003.67L1295.09 2475.08H818.934V2003.67Z" fill="#F1E3CF"/>
</g>
</svg>
